<svg width="297" height="170" version="1.1" xmlns="http://www.w3.org/2000/svg" desc="Created with imagetracer.js version 1.2.6" ><path fill="rgb(228,201,109)" stroke="rgb(228,201,109)" stroke-width="1" opacity="1" d="M 75.5 32 Q 94.6 31.9 102 43.5 Q 99.1 48.1 92.5 49 L 53 49 Q 54.1 42.7 59.5 39 L 67.5 34 L 75.5 32 Z " /><path fill="rgb(228,201,109)" stroke="rgb(228,201,109)" stroke-width="1" opacity="1" d="M 119 32 Q 136.7 29.4 143 39.5 L 146 45.5 L 146 63 L 119 63 L 119 32 Z " /><path fill="rgb(228,201,109)" stroke="rgb(228,201,109)" stroke-width="1" opacity="1" d="M 192 32 L 235.5 32 L 236 33.5 L 214.5 59 L 204.5 55 L 192 54 L 192 32 Z " /><path fill="rgb(228,201,109)" stroke="rgb(228,201,109)" stroke-width="1" opacity="1" d="M 49.5 58 L 50 63.5 L 49 63.5 L 49.5 58 Z " /><path fill="rgb(228,201,109)" stroke="rgb(228,201,109)" stroke-width="1" opacity="1" d="M 50.5 68 L 51.5 69 L 75 69.5 L 51.5 70 L 50.5 68 Z " /><path fill="rgb(228,201,109)" stroke="rgb(228,201,109)" stroke-width="1" opacity="1" d="M 185.5 104 L 186 139.5 L 185 139.5 L 185.5 104 Z " /><path fill="rgb(228,201,109)" stroke="rgb(228,201,109)" stroke-width="1" opacity="1" d="M 124.5 109 L 125 114.5 L 124 114.5 L 124.5 109 Z " /><path fill="rgb(228,201,109)" stroke="rgb(228,201,109)" stroke-width="1" opacity="1" d="M 97.5 113 L 98 115.5 L 97 115.5 L 97.5 113 Z " /><path fill="rgb(228,201,109)" stroke="rgb(228,201,109)" stroke-width="1" opacity="1" d="M 203.5 115 L 201.5 118 L 203.5 115 Z " /><path fill="rgb(228,201,109)" stroke="rgb(228,201,109)" stroke-width="1" opacity="1" d="M 124.5 117 L 125 133.5 L 124 133.5 L 124.5 117 Z " /><path fill="rgb(228,201,109)" stroke="rgb(228,201,109)" stroke-width="1" opacity="1" d="M 198.5 117 L 196.5 120 L 198.5 117 Z " /><path fill="rgb(228,201,109)" stroke="rgb(228,201,109)" stroke-width="1" opacity="1" d="M 152.5 121 L 153 123.5 L 152 123.5 L 152.5 121 Z " /><path fill="rgb(228,201,109)" stroke="rgb(228,201,109)" stroke-width="1" opacity="1" d="M 145.5 125 L 149 125.5 L 145.5 126 L 145.5 125 Z " /><path fill="rgb(228,201,109)" stroke="rgb(228,201,109)" stroke-width="1" opacity="1" d="M 161.5 125 L 162 129.5 L 161 129.5 L 161.5 125 Z " /><path fill="rgb(228,201,109)" stroke="rgb(228,201,109)" stroke-width="1" opacity="1" d="M 150.5 127 L 153 128.5 L 152.5 132 L 152 128 L 150.5 127 Z " /><path fill="rgb(228,201,109)" stroke="rgb(228,201,109)" stroke-width="1" opacity="1" d="M 115.5 129 L 116 133.5 L 115 133.5 L 115.5 129 Z " /><path fill="rgb(228,201,109)" stroke="rgb(228,201,109)" stroke-width="1" opacity="1" d="M 140.5 129 L 139.5 131 L 140.5 129 Z " /><path fill="rgb(228,201,109)" stroke="rgb(228,201,109)" stroke-width="1" opacity="1" d="M 166.5 135 L 167.5 137 L 166.5 135 Z " /><path fill="rgb(228,201,109)" stroke="rgb(228,201,109)" stroke-width="1" opacity="1" d="M 139.5 136 L 140.5 138 L 139.5 136 Z " /><path fill="rgb(228,201,109)" stroke="rgb(228,201,109)" stroke-width="1" opacity="1" d="M 151.5 137 L 150.5 139 L 151.5 137 Z " /><path fill="rgb(228,201,109)" stroke="rgb(228,201,109)" stroke-width="1" opacity="1" d="M 199.5 137 L 200.5 139 L 199.5 137 Z " /><path fill="rgb(228,201,109)" stroke="rgb(228,201,109)" stroke-width="1" opacity="1" d="M 203.5 138 L 204.5 140 L 203.5 138 Z " /><path fill="rgb(255,255,255)" stroke="rgb(255,255,255)" stroke-width="1" opacity="1" d="M 0 0 L 297 0 L 297 170 L 0 170 L 0 0 Z M 76 32 L 68 34 L 60 39 Q 54 43 53 49 L 93 49 Q 99 48 102 44 Q 95 32 76 32 Z M 119 32 L 119 69 L 124 80 Q 130 87 140 90 L 171 90 L 171 63 L 146 63 L 146 46 L 143 40 Q 137 29 119 32 Z M 192 32 L 192 90 L 236 90 Q 235 79 228 72 Q 223 64 214 60 L 236 34 L 236 32 L 192 32 Z M 50 53 L 49 59 L 50 69 L 52 70 L 75 70 L 76 69 L 91 69 L 93 68 L 96 63 L 95 58 L 89 53 L 50 53 Z M 53 74 L 55 79 Q 61 88 74 90 L 84 90 L 96 85 L 101 79 L 95 74 L 53 74 Z M 185 104 L 185 140 L 188 140 L 188 132 L 193 128 L 202 140 L 205 140 L 195 127 L 194 126 L 204 116 L 201 115 L 196 121 L 188 128 L 188 105 L 185 104 Z M 101 106 L 99 107 Q 93 109 95 119 L 99 122 L 110 126 L 113 131 L 112 135 L 108 138 L 98 138 L 97 137 Q 92 136 94 140 L 99 141 L 111 140 L 116 134 L 115 128 L 112 124 L 100 119 Q 96 118 98 112 L 104 108 Q 110 107 114 110 L 115 107 Q 110 105 101 106 Z M 123 109 L 122 114 L 118 115 Q 117 119 122 117 L 122 137 L 123 139 Q 125 142 132 141 L 133 138 L 127 138 L 125 137 L 125 117 L 132 117 L 132 115 L 125 115 L 125 109 L 123 109 Z M 145 114 L 138 117 L 140 119 Q 142 116 150 117 L 152 120 L 153 125 L 142 126 L 136 131 Q 135 137 137 139 L 142 141 Q 148 142 151 139 L 153 138 Q 152 141 155 140 L 155 120 L 154 118 Q 152 113 145 114 Z M 172 114 L 167 116 Q 162 119 161 126 L 163 136 L 171 141 Q 176 143 178 140 Q 182 141 180 137 Q 177 139 170 138 Q 165 135 164 129 L 166 121 L 171 117 Q 177 115 179 118 Q 182 119 180 115 L 172 114 Z " /><path fill="rgb(255,255,255)" stroke="rgb(255,255,255)" stroke-width="1" opacity="1" d="M 143.5 128 L 152 128 L 152 133.5 L 149.5 137 L 141.5 138 Q 138 137 139 131.5 L 143.5 128 Z " /><path fill="rgb(74,105,110)" stroke="rgb(74,105,110)" stroke-width="1" opacity="1" d="M 51.5 53 L 88.5 53 L 95 57.5 L 96 62.5 L 92.5 68 L 90.5 69 L 51.5 69 L 50 67.5 L 50 54.5 L 51.5 53 Z " /><path fill="rgb(74,105,110)" stroke="rgb(74,105,110)" stroke-width="1" opacity="1" d="M 192 54 L 199.5 54 L 207.5 56 Q 220.1 61.4 228 71.5 Q 234.3 78.9 236 90 L 192 90 L 192 54 Z " /><path fill="rgb(74,105,110)" stroke="rgb(74,105,110)" stroke-width="1" opacity="1" d="M 119 63 L 171 63 L 171 90 L 140.5 90 Q 130.4 87.6 125 80.5 Q 119.5 73.8 119 63 Z " /><path fill="rgb(74,105,110)" stroke="rgb(74,105,110)" stroke-width="1" opacity="1" d="M 53 74 L 93.5 74 L 101 78.5 L 95.5 85 L 83.5 90 L 73.5 90 Q 61.2 87.3 55 78.5 L 53 74 Z " /><path fill="rgb(74,105,110)" stroke="rgb(74,105,110)" stroke-width="1" opacity="1" d="M 186 104 L 188 104.5 L 188 127.5 L 199 117.5 L 200.5 115 L 203 115.5 L 194 126.5 L 204 139.5 L 201 140 L 192.5 128 L 188 131.5 L 188 139.5 L 186 140 L 186 104 Z " /><path fill="rgb(74,105,110)" stroke="rgb(74,105,110)" stroke-width="1" opacity="1" d="M 101.5 106 Q 109.8 105.1 114 107 L 113.5 110 Q 110.2 106.8 102.5 108 L 98 111.5 L 97 115.5 L 100.5 120 L 111.5 124 L 115 127.5 Q 117 137 111.5 139 L 105.5 141 L 100.5 141 L 94 138.5 Q 93.3 136.3 95.5 137 L 96.5 138 L 108.5 138 L 113 133.5 L 113 129.5 L 109.5 126 L 96 119.5 L 95 111.5 L 97.5 108 L 101.5 106 Z " /><path fill="rgb(74,105,110)" stroke="rgb(74,105,110)" stroke-width="1" opacity="1" d="M 123.5 109 L 124 115 L 131.5 115 L 132 117 L 124 117 L 124 133.5 L 126.5 138 L 129.5 139 L 131.5 138 L 132.5 140 L 127.5 141 L 123 138.5 L 122 136.5 L 122 117 L 118 116.5 L 122 115 L 123.5 109 Z " /><path fill="rgb(74,105,110)" stroke="rgb(74,105,110)" stroke-width="1" opacity="1" d="M 146.5 114 L 154 117.5 L 155 119.5 L 155 140 L 153 140 Q 154.5 136.3 151.5 137 Q 149.3 141.3 142.5 141 L 136 136.5 Q 134.9 128.9 139.5 127 L 153 125 Q 153.9 119.1 149.5 117 Q 142.4 116.3 139 118 Q 137.9 115.3 140.5 116 L 146.5 114 Z M 151 127 L 141 129 L 138 134 L 141 138 L 150 137 Q 153 135 153 129 L 151 127 Z " /><path fill="rgb(74,105,110)" stroke="rgb(74,105,110)" stroke-width="1" opacity="1" d="M 173.5 114 L 180 115 L 178.5 118 L 177.5 117 L 169.5 117 Q 162.9 119.9 164 130.5 L 167.5 137 L 180 138.5 Q 177.7 141.7 171.5 141 Q 165.8 139.8 163 135.5 Q 160.8 130.8 162 122.5 L 166.5 116 L 173.5 114 Z " /></svg>