<svg width="300" height="168" version="1.1" xmlns="http://www.w3.org/2000/svg" desc="Created with imagetracer.js version 1.2.6" ><path fill="rgb(213,222,240)" stroke="rgb(213,222,240)" stroke-width="1" opacity="1" d="M 141.5 13 L 146 13.5 L 141.5 14 L 141.5 13 Z " /><path fill="rgb(213,222,240)" stroke="rgb(213,222,240)" stroke-width="1" opacity="1" d="M 154.5 13 L 159 13.5 L 154.5 14 L 154.5 13 Z " /><path fill="rgb(213,222,240)" stroke="rgb(213,222,240)" stroke-width="1" opacity="1" d="M 105.5 28 L 102.5 32 L 105.5 28 Z " /><path fill="rgb(213,222,240)" stroke="rgb(213,222,240)" stroke-width="1" opacity="1" d="M 194.5 28 L 197.5 32 L 194.5 28 Z " /><path fill="rgb(213,222,240)" stroke="rgb(213,222,240)" stroke-width="1" opacity="1" d="M 105.5 35 L 108 35.5 L 105.5 36 L 105.5 35 Z " /><path fill="rgb(213,222,240)" stroke="rgb(213,222,240)" stroke-width="1" opacity="1" d="M 59.5 36 L 89.5 36 L 90.5 37 L 99 37.5 L 95 38 Q 96.3 41.3 91.5 40 L 90.5 39 L 79.5 39 L 78.5 38 L 58 37.5 L 59.5 36 Z " /><path fill="rgb(213,222,240)" stroke="rgb(213,222,240)" stroke-width="1" opacity="1" d="M 202.5 36 L 205.5 40 L 202.5 36 Z " /><path fill="rgb(213,222,240)" stroke="rgb(213,222,240)" stroke-width="1" opacity="1" d="M 102.5 38 L 105 38.5 L 102.5 39 L 102.5 38 Z " /><path fill="rgb(213,222,240)" stroke="rgb(213,222,240)" stroke-width="1" opacity="1" d="M 92.5 42 L 91.5 44 L 92.5 42 Z " /><path fill="rgb(213,222,240)" stroke="rgb(213,222,240)" stroke-width="1" opacity="1" d="M 207.5 42 L 208.5 44 L 207.5 42 Z " /><path fill="rgb(213,222,240)" stroke="rgb(213,222,240)" stroke-width="1" opacity="1" d="M 137.5 43 Q 140.3 44.3 139 49.5 L 138 49.5 L 137.5 43 Z " /><path fill="rgb(213,222,240)" stroke="rgb(213,222,240)" stroke-width="1" opacity="1" d="M 90.5 45 L 89.5 47 L 90.5 45 Z " /><path fill="rgb(213,222,240)" stroke="rgb(213,222,240)" stroke-width="1" opacity="1" d="M 209.5 45 L 210.5 47 L 209.5 45 Z " /><path fill="rgb(213,222,240)" stroke="rgb(213,222,240)" stroke-width="1" opacity="1" d="M 93.5 46 L 102 46.5 L 93.5 47 L 93.5 46 Z " /><path fill="rgb(213,222,240)" stroke="rgb(213,222,240)" stroke-width="1" opacity="1" d="M 113.5 46 L 122 46.5 L 113.5 47 L 113.5 46 Z " /><path fill="rgb(213,222,240)" stroke="rgb(213,222,240)" stroke-width="1" opacity="1" d="M 133.5 46 L 134.5 48 L 133.5 46 Z " /><path fill="rgb(213,222,240)" stroke="rgb(213,222,240)" stroke-width="1" opacity="1" d="M 127.5 47 L 130 47.5 L 127.5 48 L 127.5 47 Z " /><path fill="rgb(213,222,240)" stroke="rgb(213,222,240)" stroke-width="1" opacity="1" d="M 89.5 50 L 95 50.5 L 89.5 51 L 89.5 50 Z " /><path fill="rgb(213,222,240)" stroke="rgb(213,222,240)" stroke-width="1" opacity="1" d="M 119.5 50 L 124 50.5 L 119.5 51 L 119.5 50 Z " /><path fill="rgb(213,222,240)" stroke="rgb(213,222,240)" stroke-width="1" opacity="1" d="M 80.5 51 L 87 51.5 L 85.5 55 Q 84.2 52.8 79.5 54 L 50.5 59 L 51.5 57 L 61.5 54 L 79.5 52 L 80.5 51 Z " /><path fill="rgb(213,222,240)" stroke="rgb(213,222,240)" stroke-width="1" opacity="1" d="M 129.5 51 L 132 51.5 L 129.5 52 L 129.5 51 Z " /><path fill="rgb(213,222,240)" stroke="rgb(213,222,240)" stroke-width="1" opacity="1" d="M 122.5 53 L 126 53.5 L 122.5 54 L 122.5 53 Z " /><path fill="rgb(213,222,240)" stroke="rgb(213,222,240)" stroke-width="1" opacity="1" d="M 159.5 53 L 158.5 55 L 159.5 53 Z " /><path fill="rgb(213,222,240)" stroke="rgb(213,222,240)" stroke-width="1" opacity="1" d="M 161.5 54 L 160.5 56 L 161.5 54 Z " /><path fill="rgb(213,222,240)" stroke="rgb(213,222,240)" stroke-width="1" opacity="1" d="M 126.5 57 L 130 57.5 L 126.5 58 L 126.5 57 Z " /><path fill="rgb(213,222,240)" stroke="rgb(213,222,240)" stroke-width="1" opacity="1" d="M 118.5 58 L 121 58.5 L 118.5 59 L 118.5 58 Z " /><path fill="rgb(213,222,240)" stroke="rgb(213,222,240)" stroke-width="1" opacity="1" d="M 175.5 61 L 176.5 63 L 175.5 61 Z " /><path fill="rgb(213,222,240)" stroke="rgb(213,222,240)" stroke-width="1" opacity="1" d="M 154.5 62 L 157 62.5 L 154.5 63 L 154.5 62 Z " /><path fill="rgb(213,222,240)" stroke="rgb(213,222,240)" stroke-width="1" opacity="1" d="M 173.5 62 L 174.5 64 L 173.5 62 Z " /><path fill="rgb(213,222,240)" stroke="rgb(213,222,240)" stroke-width="1" opacity="1" d="M 179.5 64 L 185.5 71 L 179.5 64 Z " /><path fill="rgb(213,222,240)" stroke="rgb(213,222,240)" stroke-width="1" opacity="1" d="M 172.5 65 L 173.5 67 L 172.5 65 Z " /><path fill="rgb(213,222,240)" stroke="rgb(213,222,240)" stroke-width="1" opacity="1" d="M 177.5 65 L 182.5 71 L 177.5 65 Z " /><path fill="rgb(213,222,240)" stroke="rgb(213,222,240)" stroke-width="1" opacity="1" d="M 150.5 67 L 153 67.5 L 150.5 68 L 150.5 67 Z " /><path fill="rgb(213,222,240)" stroke="rgb(213,222,240)" stroke-width="1" opacity="1" d="M 80.5 69 L 80 70.5 L 79 72.5 L 80 77.5 L 79 77.5 Q 80.9 72.1 77.5 73 L 63.5 79 L 64.5 77 L 80.5 69 Z " /><path fill="rgb(213,222,240)" stroke="rgb(213,222,240)" stroke-width="1" opacity="1" d="M 139.5 71 L 138.5 73 L 139.5 71 Z " /><path fill="rgb(213,222,240)" stroke="rgb(213,222,240)" stroke-width="1" opacity="1" d="M 181.5 72 L 186 73.5 L 182.5 74 L 181.5 72 Z " /><path fill="rgb(213,222,240)" stroke="rgb(213,222,240)" stroke-width="1" opacity="1" d="M 220.5 73 L 221 76.5 L 220 76.5 L 220.5 73 Z " /><path fill="rgb(213,222,240)" stroke="rgb(213,222,240)" stroke-width="1" opacity="1" d="M 186.5 77 L 190 78.5 L 186 79.5 L 186.5 77 Z " /><path fill="rgb(213,222,240)" stroke="rgb(213,222,240)" stroke-width="1" opacity="1" d="M 134.5 80 L 135 86.5 L 134 86.5 L 134.5 80 Z " /><path fill="rgb(213,222,240)" stroke="rgb(213,222,240)" stroke-width="1" opacity="1" d="M 128.5 81 L 129 88.5 L 128 88.5 L 128.5 81 Z " /><path fill="rgb(213,222,240)" stroke="rgb(213,222,240)" stroke-width="1" opacity="1" d="M 195.5 84 L 198 85.5 L 196.5 85 L 195.5 84 Z " /><path fill="rgb(213,222,240)" stroke="rgb(213,222,240)" stroke-width="1" opacity="1" d="M 189.5 85 L 193.5 88 L 195 87.5 L 192.5 89 L 189.5 85 Z " /><path fill="rgb(213,222,240)" stroke="rgb(213,222,240)" stroke-width="1" opacity="1" d="M 79.5 91 L 80 94.5 L 79 94.5 L 79.5 91 Z " /><path fill="rgb(213,222,240)" stroke="rgb(213,222,240)" stroke-width="1" opacity="1" d="M 220.5 92 L 221 94.5 L 220 94.5 L 220.5 92 Z " /><path fill="rgb(213,222,240)" stroke="rgb(213,222,240)" stroke-width="1" opacity="1" d="M 137.5 93 L 138.5 95 L 137.5 93 Z " /><path fill="rgb(213,222,240)" stroke="rgb(213,222,240)" stroke-width="1" opacity="1" d="M 132.5 97 L 137.5 103 L 132.5 97 Z " /><path fill="rgb(213,222,240)" stroke="rgb(213,222,240)" stroke-width="1" opacity="1" d="M 141.5 97 L 142.5 99 L 141.5 97 Z " /><path fill="rgb(213,222,240)" stroke="rgb(213,222,240)" stroke-width="1" opacity="1" d="M 155.5 102 L 167 102.5 L 155.5 103 L 155.5 102 Z " /><path fill="rgb(213,222,240)" stroke="rgb(213,222,240)" stroke-width="1" opacity="1" d="M 172.5 103 L 175 103.5 L 172.5 104 L 172.5 103 Z " /><path fill="rgb(213,222,240)" stroke="rgb(213,222,240)" stroke-width="1" opacity="1" d="M 154.5 107 L 161 107.5 L 154.5 108 L 154.5 107 Z " /><path fill="rgb(213,222,240)" stroke="rgb(213,222,240)" stroke-width="1" opacity="1" d="M 184.5 109 Q 186.8 108.3 186 110.5 L 184.5 109 Z " /><path fill="rgb(213,222,240)" stroke="rgb(213,222,240)" stroke-width="1" opacity="1" d="M 198.5 112 L 199.5 114 L 198.5 112 Z " /><path fill="rgb(213,222,240)" stroke="rgb(213,222,240)" stroke-width="1" opacity="1" d="M 183.5 113 L 184.5 115 L 183.5 113 Z " /><path fill="rgb(213,222,240)" stroke="rgb(213,222,240)" stroke-width="1" opacity="1" d="M 189.5 113 L 191.5 116 L 189.5 113 Z " /><path fill="rgb(213,222,240)" stroke="rgb(213,222,240)" stroke-width="1" opacity="1" d="M 198.5 116 L 202.5 121 L 198.5 116 Z " /><path fill="rgb(213,222,240)" stroke="rgb(213,222,240)" stroke-width="1" opacity="1" d="M 203.5 117 L 204.5 119 L 203.5 117 Z " /><path fill="rgb(213,222,240)" stroke="rgb(213,222,240)" stroke-width="1" opacity="1" d="M 195.5 121 L 196.5 123 L 195.5 121 Z " /><path fill="rgb(213,222,240)" stroke="rgb(213,222,240)" stroke-width="1" opacity="1" d="M 206.5 127 L 208 133 Q 210.7 131.9 210 134.5 L 208 135.5 L 205.5 129 L 202 131.5 L 206.5 127 Z " /><path fill="rgb(213,222,240)" stroke="rgb(213,222,240)" stroke-width="1" opacity="1" d="M 95.5 129 L 104.5 139 L 95.5 129 Z " /><path fill="rgb(213,222,240)" stroke="rgb(213,222,240)" stroke-width="1" opacity="1" d="M 198.5 135 L 201 142.5 L 201 147.5 L 200 147.5 L 200 143.5 L 197.5 137 L 195 138.5 L 198.5 135 Z " /><path fill="rgb(213,222,240)" stroke="rgb(213,222,240)" stroke-width="1" opacity="1" d="M 107.5 140 L 108.5 142 L 107.5 140 Z " /><path fill="rgb(213,222,240)" stroke="rgb(213,222,240)" stroke-width="1" opacity="1" d="M 192.5 140 L 191.5 142 L 192.5 140 Z " /><path fill="rgb(213,222,240)" stroke="rgb(213,222,240)" stroke-width="1" opacity="1" d="M 201.5 149 L 203 153 Q 199.2 154.2 201.5 149 Z " /><path fill="rgb(213,222,240)" stroke="rgb(213,222,240)" stroke-width="1" opacity="1" d="M 142.5 154 L 158 154.5 L 142.5 155 L 142.5 154 Z " /><path fill="rgb(255,255,255)" stroke="rgb(255,255,255)" stroke-width="1" opacity="1" d="M 0 0 L 300 0 L 300 168 L 0 168 L 0 0 Z M 142 13 L 123 18 L 115 22 L 99 35 L 117 37 L 137 43 L 138 45 L 138 50 L 141 58 L 146 62 L 154 62 L 167 65 L 168 63 L 169 67 L 172 68 L 172 67 L 175 69 Q 174 71 177 70 L 178 68 L 179 71 Q 181 75 187 74 L 190 82 L 197 86 L 194 88 L 182 81 Q 179 80 180 76 L 166 70 L 153 67 Q 144 67 140 71 L 134 81 Q 133 89 137 94 Q 141 100 150 102 L 172 103 L 183 105 L 201 114 L 207 123 Q 206 126 209 125 L 217 110 L 221 95 L 221 74 L 219 65 Q 215 50 206 40 Q 195 26 178 18 L 159 13 L 142 13 Z M 60 36 L 58 38 L 91 39 L 94 41 L 91 45 L 90 47 L 102 47 L 103 46 L 127 47 L 128 48 L 133 48 L 133 51 L 134 52 L 124 50 L 90 50 L 89 51 L 67 53 L 52 57 L 51 59 L 72 55 L 85 54 L 81 65 L 82 66 L 90 62 L 114 55 L 134 53 L 135 57 Q 92 59 65 77 L 64 79 L 80 72 L 79 74 L 79 95 L 81 104 Q 86 119 95 130 Q 104 140 117 147 L 132 153 L 143 155 L 158 155 L 169 153 Q 186 148 198 137 L 200 144 L 200 148 L 201 148 Q 200 131 192 122 Q 187 113 177 110 L 161 107 L 148 107 L 139 103 Q 132 99 129 91 Q 127 78 132 72 L 141 64 Q 136 57 135 48 L 126 43 L 99 37 L 91 37 L 90 36 L 60 36 Z M 187 77 Q 184 81 188 80 L 187 77 Z M 185 109 L 187 111 Q 197 119 200 133 L 206 129 L 207 133 L 208 133 L 208 130 L 203 121 Q 196 112 185 109 Z M 208 133 L 208 136 L 210 135 Q 211 132 208 133 Z M 202 149 Q 199 154 203 153 L 202 149 Z " /><path fill="rgb(255,255,255)" stroke="rgb(255,255,255)" stroke-width="1" opacity="1" d="M 157.5 53 Q 174.8 58.2 185 70.5 L 183.5 71 L 173.5 62 L 157.5 54 L 157.5 53 Z " /><path fill="rgb(15,96,189)" stroke="rgb(15,96,189)" stroke-width="1" opacity="1" d="M 96.5 38 L 111.5 40 L 134 47 L 135 50.5 L 134 50.5 L 131.5 47 L 126.5 47 L 111.5 42 L 95 39.5 L 96.5 38 Z " /><path fill="rgb(15,96,189)" stroke="rgb(15,96,189)" stroke-width="1" opacity="1" d="M 99.5 50 L 114.5 50 L 115.5 51 L 126.5 51 L 133 52.5 L 114.5 53 L 113.5 52 L 101.5 52 L 100.5 53 L 86.5 53 L 87.5 51 L 98.5 51 L 99.5 50 Z " /><path fill="rgb(15,96,189)" stroke="rgb(15,96,189)" stroke-width="1" opacity="1" d="M 136.5 55 L 138 58.5 L 137 58.5 L 136.5 55 Z " /><path fill="rgb(15,96,189)" stroke="rgb(15,96,189)" stroke-width="1" opacity="1" d="M 157 55 L 169.5 60 L 186 72.5 L 182.5 73 L 179 68 L 176.5 68 L 167.5 61 L 157 57 L 157 55 Z " /><path fill="rgb(15,96,189)" stroke="rgb(15,96,189)" stroke-width="1" opacity="1" d="M 122.5 58 L 136 58.5 L 134.5 60 L 122.5 60 L 106.5 63 L 88.5 68 L 80.5 72 L 80 70.5 L 83.5 68 L 98.5 63 L 122.5 58 Z " /><path fill="rgb(15,96,189)" stroke="rgb(15,96,189)" stroke-width="1" opacity="1" d="M 138.5 60 L 140 63.5 L 139 63.5 L 138.5 60 Z " /><path fill="rgb(15,96,189)" stroke="rgb(15,96,189)" stroke-width="1" opacity="1" d="M 147.5 68 L 160.5 69 Q 171.2 71.8 179 77.5 L 180 81 Q 188 83 193.5 89 L 197.5 87 L 196.5 89 L 192.5 91 L 188.5 87 L 180 82.5 L 177.5 78 L 159.5 71 L 148.5 70 Q 140.7 71.2 137 76.5 L 136.5 78 L 136 76.5 L 140.5 71 L 147.5 68 Z " /><path fill="rgb(15,96,189)" stroke="rgb(15,96,189)" stroke-width="1" opacity="1" d="M 219.5 93 L 220 96.5 L 219 96.5 L 219.5 93 Z " /><path fill="rgb(15,96,189)" stroke="rgb(15,96,189)" stroke-width="1" opacity="1" d="M 130.5 95 L 137.5 103 L 142.5 106 L 150.5 108 L 164.5 108 L 174.5 110 Q 184.1 112.9 190 119.5 L 198 135.5 Q 187.1 147.1 169.5 152 L 160.5 154 L 139.5 154 Q 109.1 148.4 94 127.5 Q 86.6 118.9 83 106.5 L 84 106.5 Q 90.9 125.1 105.5 136 Q 115.9 144.6 130.5 149 L 139.5 151 L 160.5 151 Q 183.5 147 197 133.5 L 186.5 118 Q 180.1 112.9 170.5 111 L 149.5 110 L 142.5 108 L 132 99.5 L 130.5 95 Z " /><path fill="rgb(15,96,189)" stroke="rgb(15,96,189)" stroke-width="1" opacity="1" d="M 218.5 98 L 219 101.5 Q 215.5 114.5 208.5 124 Q 205.8 122.8 208 121.5 Q 215.9 112.4 218.5 98 Z " /><path fill="rgb(15,96,189)" stroke="rgb(15,96,189)" stroke-width="1" opacity="1" d="M 186.5 110 Q 197.8 113.8 204 122.5 L 206 127.5 L 200 132 L 204 125.5 L 197.5 118 L 187.5 112 L 186.5 110 Z " /><path fill="rgb(44,130,252)" stroke="rgb(44,130,252)" stroke-width="1" opacity="1" d="M 144.5 14 Q 166.4 13.1 179.5 21 L 181 20.5 L 181.5 22 L 183 21.5 Q 182.3 23.8 184.5 23 L 192.5 28 L 204.5 40 L 206 40 L 206 42.5 L 210 49 Q 213 47.8 212 51.5 L 215 55.5 L 212 53.5 Q 207.4 43.1 199.5 36 Q 188.8 25.7 173.5 20 L 161.5 17 L 147.5 16 L 126.5 20 L 115.5 25 L 110.5 29 L 110.5 27 L 109 26.5 L 117 23 L 117.5 21 L 119 21.5 L 119.5 20 L 121.5 20 L 132.5 16 L 143.5 15 L 144.5 14 Z " /><path fill="rgb(44,130,252)" stroke="rgb(44,130,252)" stroke-width="1" opacity="1" d="M 105.5 29 L 103.5 32 L 105.5 29 Z " /><path fill="rgb(44,130,252)" stroke="rgb(44,130,252)" stroke-width="1" opacity="1" d="M 107.5 30 L 105.5 33 L 107.5 30 Z " /><path fill="rgb(44,130,252)" stroke="rgb(44,130,252)" stroke-width="1" opacity="1" d="M 104.5 41 L 119 44.5 L 103.5 45 L 101.5 42 L 104.5 41 Z " /><path fill="rgb(44,130,252)" stroke="rgb(44,130,252)" stroke-width="1" opacity="1" d="M 93.5 45 L 98 45.5 L 93.5 46 L 93.5 45 Z " /><path fill="rgb(44,130,252)" stroke="rgb(44,130,252)" stroke-width="1" opacity="1" d="M 132.5 46 L 131.5 48 L 132.5 46 Z " /><path fill="rgb(44,130,252)" stroke="rgb(44,130,252)" stroke-width="1" opacity="1" d="M 110.5 54 L 109.5 56 L 110.5 54 Z " /><path fill="rgb(44,130,252)" stroke="rgb(44,130,252)" stroke-width="1" opacity="1" d="M 133.5 57 L 137 58.5 L 135.5 58 Q 132.5 58.5 133.5 57 Z " /><path fill="rgb(44,130,252)" stroke="rgb(44,130,252)" stroke-width="1" opacity="1" d="M 126.5 60 L 134 60.5 L 132 61.5 Q 140 65.5 132 69.5 L 130.5 72 L 121.5 62 L 126.5 60 Z " /><path fill="rgb(44,130,252)" stroke="rgb(44,130,252)" stroke-width="1" opacity="1" d="M 145.5 71 L 144 73.5 L 171.5 102 L 170.5 101 L 159.5 101 L 138 79.5 Q 138.5 74 142.5 72 L 145.5 71 Z " /><path fill="rgb(44,130,252)" stroke="rgb(44,130,252)" stroke-width="1" opacity="1" d="M 135.5 81 L 136 85.5 L 135 85.5 L 135.5 81 Z " /><path fill="rgb(44,130,252)" stroke="rgb(44,130,252)" stroke-width="1" opacity="1" d="M 80.5 93 L 81 95.5 L 80 95.5 L 80.5 93 Z " /><path fill="rgb(44,130,252)" stroke="rgb(44,130,252)" stroke-width="1" opacity="1" d="M 139.5 94 L 141.5 97 L 139.5 94 Z " /><path fill="rgb(44,130,252)" stroke="rgb(44,130,252)" stroke-width="1" opacity="1" d="M 148.5 100 L 151 100.5 L 148.5 101 L 148.5 100 Z " /><path fill="rgb(44,130,252)" stroke="rgb(44,130,252)" stroke-width="1" opacity="1" d="M 172.5 113 L 175.5 114 L 176.5 113 L 180.5 115 L 183.5 116 L 191.5 124 L 193 123.5 L 192 125.5 L 193 129 Q 195.7 127.9 195 130.5 L 195 132.5 L 193.5 135 L 172.5 113 Z " /><path fill="rgb(48,157,250)" stroke="rgb(48,157,250)" stroke-width="1" opacity="1" d="M 146.5 13 L 154 13.5 L 146.5 14 L 146.5 13 Z " /><path fill="rgb(48,157,250)" stroke="rgb(48,157,250)" stroke-width="1" opacity="1" d="M 101.5 32 L 101.5 34 L 103 34.5 L 101.5 35 Q 98.5 33.5 101.5 32 Z " /><path fill="rgb(48,157,250)" stroke="rgb(48,157,250)" stroke-width="1" opacity="1" d="M 198.5 32 L 201.5 36 L 198.5 32 Z " /><path fill="rgb(48,157,250)" stroke="rgb(48,157,250)" stroke-width="1" opacity="1" d="M 134.5 48 L 133.5 50 L 134.5 48 Z " /><path fill="rgb(48,157,250)" stroke="rgb(48,157,250)" stroke-width="1" opacity="1" d="M 95.5 50 L 98 50.5 L 95.5 51 L 95.5 50 Z " /><path fill="rgb(48,157,250)" stroke="rgb(48,157,250)" stroke-width="1" opacity="1" d="M 116.5 50 L 119 50.5 L 116.5 51 L 116.5 50 Z " /><path fill="rgb(48,157,250)" stroke="rgb(48,157,250)" stroke-width="1" opacity="1" d="M 136.5 54 L 135.5 56 L 136.5 54 Z " /><path fill="rgb(48,157,250)" stroke="rgb(48,157,250)" stroke-width="1" opacity="1" d="M 130.5 57 L 133 57.5 L 130.5 58 L 130.5 57 Z " /><path fill="rgb(48,157,250)" stroke="rgb(48,157,250)" stroke-width="1" opacity="1" d="M 167.5 62 L 166.5 64 L 167.5 62 Z " /><path fill="rgb(48,157,250)" stroke="rgb(48,157,250)" stroke-width="1" opacity="1" d="M 82.5 63 L 83.5 65 L 82.5 63 Z " /><path fill="rgb(48,157,250)" stroke="rgb(48,157,250)" stroke-width="1" opacity="1" d="M 135.5 67 L 132.5 71 L 135.5 67 Z " /><path fill="rgb(48,157,250)" stroke="rgb(48,157,250)" stroke-width="1" opacity="1" d="M 178.5 76 L 180 78.5 L 179 78.5 L 178.5 76 Z " /><path fill="rgb(48,157,250)" stroke="rgb(48,157,250)" stroke-width="1" opacity="1" d="M 220.5 77 L 221 79.5 L 220 79.5 L 220.5 77 Z " /><path fill="rgb(48,157,250)" stroke="rgb(48,157,250)" stroke-width="1" opacity="1" d="M 79.5 78 L 80.5 81 L 81.5 80 L 151.5 150 L 156 150.5 L 142.5 151 L 131.5 149 L 116.5 143 Q 104.4 136.6 96 126.5 Q 85.2 115.3 81.5 97 L 80 97.5 L 81 91 Q 77.7 92.3 79 87.5 L 80 85.5 Q 77.2 83.7 79.5 78 Z " /><path fill="rgb(48,157,250)" stroke="rgb(48,157,250)" stroke-width="1" opacity="1" d="M 220.5 89 L 221 91.5 L 220 91.5 L 220.5 89 Z " /><path fill="rgb(48,157,250)" stroke="rgb(48,157,250)" stroke-width="1" opacity="1" d="M 139.5 95 L 140.5 97 L 139.5 95 Z " /><path fill="rgb(48,157,250)" stroke="rgb(48,157,250)" stroke-width="1" opacity="1" d="M 150.5 107 L 154 107.5 L 150.5 108 L 150.5 107 Z " /><path fill="rgb(48,157,250)" stroke="rgb(48,157,250)" stroke-width="1" opacity="1" d="M 189.5 111 L 188.5 113 L 189.5 111 Z " /><path fill="rgb(38,119,254)" stroke="rgb(38,119,254)" stroke-width="1" opacity="1" d="M 139.5 14 L 144 14.5 L 139.5 15 L 139.5 14 Z " /><path fill="rgb(38,119,254)" stroke="rgb(38,119,254)" stroke-width="1" opacity="1" d="M 156.5 14 L 161 14.5 L 156.5 15 L 156.5 14 Z " /><path fill="rgb(38,119,254)" stroke="rgb(38,119,254)" stroke-width="1" opacity="1" d="M 134.5 15 L 137 15.5 L 134.5 16 L 134.5 15 Z " /><path fill="rgb(38,119,254)" stroke="rgb(38,119,254)" stroke-width="1" opacity="1" d="M 163.5 15 L 166 15.5 L 163.5 16 L 163.5 15 Z " /><path fill="rgb(38,119,254)" stroke="rgb(38,119,254)" stroke-width="1" opacity="1" d="M 147.5 16 L 161.5 17 L 173.5 20 Q 188.8 25.7 199.5 36 L 194.5 29 L 204.5 40 L 201 37.5 L 205.5 43 Q 206.7 40.8 208 43.5 L 207 45.5 L 210 46.5 L 209 48.5 L 211 48.5 L 211 50.5 L 211.5 52 L 213 51.5 L 212 53.5 L 214 53.5 Q 211.5 55 215 56.5 L 219 67.5 L 221 84.5 L 221 86.5 L 216 107.5 L 207.5 122 L 203 115 L 194.5 109 L 181.5 104 L 170.5 103 L 169.5 102 L 154 101.5 L 171 100.5 L 144 73.5 L 144.5 71 L 146.5 71 L 154.5 70 Q 168.8 72.7 179 79.5 L 181.5 84 L 193.5 91 L 198 87.5 L 198 85.5 Q 198.8 82.9 195.5 84 L 191 82 L 191 79.5 L 185.5 72 L 184 71.5 L 186 70.5 Q 175.1 57.9 157.5 52 Q 154.8 53.2 157 54.5 Q 155.8 58.3 159.5 57 L 172 64.5 Q 173.1 67.8 170.5 67 L 167.5 62 L 165.5 65 L 157.5 62 L 150.5 62 L 143 60 L 140 54.5 L 139 44.5 L 137.5 43 L 115.5 36 L 103 34.5 L 121.5 22 L 133.5 18 L 146.5 17 L 147.5 16 Z " /><path fill="rgb(38,119,254)" stroke="rgb(38,119,254)" stroke-width="1" opacity="1" d="M 112.5 24 L 111.5 26 L 112.5 24 Z " /><path fill="rgb(38,119,254)" stroke="rgb(38,119,254)" stroke-width="1" opacity="1" d="M 187.5 24 L 188.5 26 L 187.5 24 Z " /><path fill="rgb(38,119,254)" stroke="rgb(38,119,254)" stroke-width="1" opacity="1" d="M 190.5 26 L 191.5 28 L 190.5 26 Z " /><path fill="rgb(38,119,254)" stroke="rgb(38,119,254)" stroke-width="1" opacity="1" d="M 119.5 44 L 123 45.5 L 98.5 46 L 98.5 45 L 118.5 45 L 119.5 44 Z " /><path fill="rgb(38,119,254)" stroke="rgb(38,119,254)" stroke-width="1" opacity="1" d="M 101.5 52 L 114 52.5 L 101.5 53 L 101.5 52 Z " /><path fill="rgb(38,119,254)" stroke="rgb(38,119,254)" stroke-width="1" opacity="1" d="M 116.5 53 L 119 53.5 L 116.5 54 L 116.5 53 Z " /><path fill="rgb(38,119,254)" stroke="rgb(38,119,254)" stroke-width="1" opacity="1" d="M 111.5 54 L 114 54.5 L 111.5 55 L 111.5 54 Z " /><path fill="rgb(38,119,254)" stroke="rgb(38,119,254)" stroke-width="1" opacity="1" d="M 135.5 59 Q 139.3 57.8 138 61.5 L 139 64.5 L 137.5 66 L 132.5 70 L 136 65.5 L 132.5 61 L 135.5 59 Z " /><path fill="rgb(38,119,254)" stroke="rgb(38,119,254)" stroke-width="1" opacity="1" d="M 122.5 60 L 126 60.5 L 122.5 61 L 122.5 60 Z " /><path fill="rgb(38,119,254)" stroke="rgb(38,119,254)" stroke-width="1" opacity="1" d="M 174.5 66 L 177 69.5 L 175 68.5 L 174.5 66 Z " /><path fill="rgb(38,119,254)" stroke="rgb(38,119,254)" stroke-width="1" opacity="1" d="M 131.5 71 L 130.5 73 L 131.5 71 Z " /><path fill="rgb(38,119,254)" stroke="rgb(38,119,254)" stroke-width="1" opacity="1" d="M 140.5 73 L 137.5 77 L 140.5 73 Z " /><path fill="rgb(38,119,254)" stroke="rgb(38,119,254)" stroke-width="1" opacity="1" d="M 161.5 110 L 165 110.5 L 161.5 111 L 161.5 110 Z " /><path fill="rgb(38,119,254)" stroke="rgb(38,119,254)" stroke-width="1" opacity="1" d="M 192.5 115 L 203 123.5 L 204 126.5 L 201 128 L 200.5 130 L 192.5 115 Z " /><path fill="rgb(38,119,254)" stroke="rgb(38,119,254)" stroke-width="1" opacity="1" d="M 186.5 118 L 189.5 122 L 186.5 118 Z " /><path fill="rgb(38,119,254)" stroke="rgb(38,119,254)" stroke-width="1" opacity="1" d="M 196.5 133 L 194.5 136 L 196.5 133 Z " /><path fill="rgb(37,141,254)" stroke="rgb(37,141,254)" stroke-width="1" opacity="1" d="M 109.5 27 L 111 27.5 L 102 34 Q 100.9 31.3 103.5 32 L 106.5 28 Q 108 30.5 109.5 27 Z " /><path fill="rgb(37,141,254)" stroke="rgb(37,141,254)" stroke-width="1" opacity="1" d="M 94 40 L 104 41.5 L 101 42.5 L 102.5 45 Q 93.7 43.2 90.5 47 L 91 45.5 L 94 40 Z " /><path fill="rgb(37,141,254)" stroke="rgb(37,141,254)" stroke-width="1" opacity="1" d="M 88.5 53 L 114 53.5 Q 107.9 53.4 105.5 57 L 103.5 57 L 82.5 65 L 83 63.5 L 83 60.5 L 86.5 54 L 88.5 53 Z " /><path fill="rgb(37,141,254)" stroke="rgb(37,141,254)" stroke-width="1" opacity="1" d="M 118.5 61 L 123 61.5 L 121 62.5 L 131 73.5 L 129 74 L 128 78.5 L 128 80.5 Q 126.6 89.4 129 94.5 Q 132 102 138.5 106 L 148.5 110 L 168.5 111 L 176 113.5 L 174.5 114 L 172.5 113 L 193.5 135 L 195.5 132 L 196 133.5 Q 182.3 148.3 156.5 151 L 151.5 150 L 81.5 80 L 80 80.5 Q 78.3 72.7 82.5 71 L 99.5 65 L 118.5 61 Z " /><path fill="rgb(37,141,254)" stroke="rgb(37,141,254)" stroke-width="1" opacity="1" d="M 138.5 76 L 138 77.5 L 138 79.5 L 159 100.5 L 152.5 102 L 146.5 99 L 145 99.5 L 144.5 98 L 143 98.5 L 138.5 93 Q 136.3 93.8 137 91.5 L 136 88.5 Q 134.1 79.1 138.5 76 Z " /><path fill="rgb(37,141,254)" stroke="rgb(37,141,254)" stroke-width="1" opacity="1" d="M 94.5 124 L 95.5 126 L 94.5 124 Z " /></svg>