<svg width="313" height="161" version="1.1" xmlns="http://www.w3.org/2000/svg" desc="Created with imagetracer.js version 1.2.6" ><path fill="rgb(255,255,255)" stroke="rgb(255,255,255)" stroke-width="1" opacity="1" d="M 0 0 L 313 0 L 313 161 L 0 161 L 0 0 Z M 235 2 L 229 5 L 213 7 L 203 12 L 194 22 L 181 43 Q 174 51 164 55 L 155 58 L 150 58 L 134 62 L 118 71 Q 109 77 105 87 L 100 91 L 84 92 L 79 93 L 74 96 L 72 99 L 78 103 Q 75 103 75 108 L 78 110 L 82 111 L 89 111 L 98 109 L 117 97 L 127 94 L 142 94 L 157 97 L 163 97 L 164 99 L 163 103 L 156 111 L 155 114 L 165 114 L 180 108 L 191 94 L 203 100 L 208 100 L 215 97 Q 216 93 214 94 L 209 88 L 209 76 Q 217 57 220 34 L 232 23 Q 238 19 240 12 Q 241 5 239 3 L 235 2 Z M 152 116 Q 149 117 150 122 Q 151 125 155 124 Q 158 123 157 117 L 152 116 Z M 52 117 L 48 142 L 48 149 L 47 150 L 47 158 L 51 158 L 53 154 L 56 132 L 70 158 L 83 132 L 86 151 L 86 157 L 88 158 Q 91 159 92 157 L 89 131 L 87 124 L 87 117 L 85 117 L 70 148 L 55 119 Q 56 115 52 117 Z M 201 117 L 199 119 L 199 156 L 202 158 L 215 158 L 226 155 Q 232 151 234 142 L 234 134 L 230 124 L 220 117 L 201 117 Z M 241 117 L 241 158 Q 252 160 260 156 L 265 151 L 266 147 L 265 141 L 259 136 L 263 128 L 261 122 L 256 117 L 241 117 Z M 106 127 L 104 128 L 96 138 Q 94 149 100 154 Q 104 158 111 159 Q 118 159 121 155 Q 123 154 122 157 Q 123 159 127 158 L 127 128 L 122 127 L 122 130 Q 117 125 106 127 Z M 132 127 L 132 157 Q 133 159 137 158 L 138 157 L 138 137 L 139 135 Q 141 131 146 132 L 147 127 L 140 127 L 139 128 L 132 127 Z M 151 127 L 151 158 Q 155 159 156 157 L 156 128 L 151 127 Z M 172 127 L 168 129 L 162 138 Q 161 147 164 152 Q 167 158 176 159 Q 184 159 188 154 Q 186 156 190 158 L 193 157 L 193 128 Q 193 127 189 127 L 188 130 Q 183 125 172 127 Z " /><path fill="rgb(255,255,255)" stroke="rgb(255,255,255)" stroke-width="1" opacity="1" d="M 217.5 10 L 227 10.5 Q 221.6 13.9 221 21 L 224.5 22 L 228 21.5 L 219 28.5 L 216 33.5 L 208 68.5 Q 203.5 79.5 195.5 87 L 193.5 88 Q 194.4 82.6 191.5 81 Q 189.3 80.3 190 82.5 Q 185.8 97.3 174.5 105 L 163.5 109 L 165 106.5 L 173 90.5 Q 172.2 82.8 174 79 L 170 81.5 L 164.5 93 L 151.5 93 L 143.5 91 L 123.5 91 Q 109.5 95.5 99.5 104 L 91.5 106 L 79.5 106 L 79.5 105 L 85 101.5 L 85 99 L 78.5 99 L 78 97.5 L 83.5 95 L 100.5 94 Q 106.6 92.6 109 87.5 L 117.5 76 L 129.5 68 Q 141.9 62.9 157.5 61 L 170.5 56 Q 179.3 51.8 185 44.5 L 198 22.5 L 206.5 14 L 211.5 11 Q 216.3 12.3 217.5 10 Z M 214 13 Q 209 14 210 20 L 214 21 L 219 18 Q 221 10 214 13 Z " /><path fill="rgb(255,255,255)" stroke="rgb(255,255,255)" stroke-width="1" opacity="1" d="M 232 11 L 235 12.5 Q 234.6 18.1 230.5 20 L 230 17.5 L 232 11 Z " /><path fill="rgb(255,255,255)" stroke="rgb(255,255,255)" stroke-width="1" opacity="1" d="M 203.5 84 Q 206.5 83.1 205 87.5 L 208 95 L 200.5 94 L 197 91.5 L 203.5 84 Z " /><path fill="rgb(255,255,255)" stroke="rgb(255,255,255)" stroke-width="1" opacity="1" d="M 205 122 Q 209.5 123.7 217.5 123 Q 223.3 124.3 226 128.5 L 229 138.5 Q 227.8 146.3 222.5 150 L 205 152 L 205 122 Z " /><path fill="rgb(255,255,255)" stroke="rgb(255,255,255)" stroke-width="1" opacity="1" d="M 246 122 L 254.5 123 L 256 124.5 Q 257.5 131.5 254.5 131 Q 252 134.2 246 133 L 246 122 Z " /><path fill="rgb(255,255,255)" stroke="rgb(255,255,255)" stroke-width="1" opacity="1" d="M 111.5 131 Q 118.8 131.3 121 136.5 Q 123.3 139.7 122 146.5 L 118.5 151 Q 115.8 153.8 109.5 153 L 103 148.5 Q 100.7 145.3 102 138.5 L 106.5 133 L 111.5 131 Z " /><path fill="rgb(255,255,255)" stroke="rgb(255,255,255)" stroke-width="1" opacity="1" d="M 176.5 131 Q 183.1 131.4 186 135.5 L 188 143.5 L 184.5 151 Q 181.5 154 174.5 153 L 168 147.5 L 167 139.5 L 171.5 133 L 176.5 131 Z " /><path fill="rgb(255,255,255)" stroke="rgb(255,255,255)" stroke-width="1" opacity="1" d="M 246 138 L 255.5 139 L 259 142.5 L 260 145.5 L 256.5 151 L 252.5 152 L 247.5 151 L 246 151.5 L 246 138 Z " /><path fill="rgb(167,179,197)" stroke="rgb(167,179,197)" stroke-width="1" opacity="1" d="M 234.5 3 L 237 3.5 L 234.5 4 L 234.5 3 Z " /><path fill="rgb(167,179,197)" stroke="rgb(167,179,197)" stroke-width="1" opacity="1" d="M 226.5 5 L 230 5.5 L 226.5 6 L 226.5 5 Z " /><path fill="rgb(167,179,197)" stroke="rgb(167,179,197)" stroke-width="1" opacity="1" d="M 219.5 6 L 225 6.5 L 219.5 7 L 219.5 6 Z " /><path fill="rgb(167,179,197)" stroke="rgb(167,179,197)" stroke-width="1" opacity="1" d="M 213.5 7 L 217 7.5 L 213.5 8 L 213.5 7 Z " /><path fill="rgb(167,179,197)" stroke="rgb(167,179,197)" stroke-width="1" opacity="1" d="M 228.5 8 L 229 9.5 L 227 13 L 231 14.5 L 229 14.5 L 230 18 L 228 18.5 L 229.5 21 L 231 20.5 Q 229.5 23.5 228 20.5 L 227.5 19 L 226.5 21 L 225.5 18 L 224.5 21 L 224 19 Q 221.3 20.1 222 17.5 L 228.5 8 Z " /><path fill="rgb(167,179,197)" stroke="rgb(167,179,197)" stroke-width="1" opacity="1" d="M 217.5 9 L 226 9.5 L 217.5 10 L 217.5 9 Z " /><path fill="rgb(167,179,197)" stroke="rgb(167,179,197)" stroke-width="1" opacity="1" d="M 204.5 11 L 196.5 20 L 204.5 11 Z " /><path fill="rgb(167,179,197)" stroke="rgb(167,179,197)" stroke-width="1" opacity="1" d="M 206.5 13 L 205.5 15 L 206.5 13 Z " /><path fill="rgb(167,179,197)" stroke="rgb(167,179,197)" stroke-width="1" opacity="1" d="M 237.5 14 L 238 15.5 L 236 16.5 L 237.5 14 Z " /><path fill="rgb(167,179,197)" stroke="rgb(167,179,197)" stroke-width="1" opacity="1" d="M 202.5 16 L 201.5 18 L 202.5 16 Z " /><path fill="rgb(167,179,197)" stroke="rgb(167,179,197)" stroke-width="1" opacity="1" d="M 234.5 16 L 233.5 18 L 234.5 16 Z " /><path fill="rgb(167,179,197)" stroke="rgb(167,179,197)" stroke-width="1" opacity="1" d="M 218.5 17 L 217.5 19 L 218.5 17 Z " /><path fill="rgb(167,179,197)" stroke="rgb(167,179,197)" stroke-width="1" opacity="1" d="M 235.5 18 L 233.5 21 L 235.5 18 Z " /><path fill="rgb(167,179,197)" stroke="rgb(167,179,197)" stroke-width="1" opacity="1" d="M 212.5 19 L 216 19.5 L 212.5 20 L 212.5 19 Z " /><path fill="rgb(167,179,197)" stroke="rgb(167,179,197)" stroke-width="1" opacity="1" d="M 194.5 22 L 193.5 24 L 194.5 22 Z " /><path fill="rgb(167,179,197)" stroke="rgb(167,179,197)" stroke-width="1" opacity="1" d="M 226.5 23 L 225.5 25 L 226.5 23 Z " /><path fill="rgb(167,179,197)" stroke="rgb(167,179,197)" stroke-width="1" opacity="1" d="M 229.5 23 L 227.5 26 L 229.5 23 Z " /><path fill="rgb(167,179,197)" stroke="rgb(167,179,197)" stroke-width="1" opacity="1" d="M 192.5 25 L 192 26.5 L 190.5 29 L 191 27.5 L 192.5 25 Z " /><path fill="rgb(167,179,197)" stroke="rgb(167,179,197)" stroke-width="1" opacity="1" d="M 223.5 25 L 218.5 31 L 223.5 25 Z " /><path fill="rgb(167,179,197)" stroke="rgb(167,179,197)" stroke-width="1" opacity="1" d="M 193.5 29 L 192.5 31 L 193.5 29 Z " /><path fill="rgb(167,179,197)" stroke="rgb(167,179,197)" stroke-width="1" opacity="1" d="M 189.5 36 L 188.5 38 L 189.5 36 Z " /><path fill="rgb(167,179,197)" stroke="rgb(167,179,197)" stroke-width="1" opacity="1" d="M 184.5 38 L 183.5 40 L 184.5 38 Z " /><path fill="rgb(167,179,197)" stroke="rgb(167,179,197)" stroke-width="1" opacity="1" d="M 215.5 38 L 216 40.5 L 215 40.5 L 215.5 38 Z " /><path fill="rgb(167,179,197)" stroke="rgb(167,179,197)" stroke-width="1" opacity="1" d="M 187.5 39 L 186.5 41 L 187.5 39 Z " /><path fill="rgb(167,179,197)" stroke="rgb(167,179,197)" stroke-width="1" opacity="1" d="M 182.5 41 L 180.5 44 L 182.5 41 Z " /><path fill="rgb(167,179,197)" stroke="rgb(167,179,197)" stroke-width="1" opacity="1" d="M 214.5 42 L 215 45.5 L 214 45.5 L 214.5 42 Z " /><path fill="rgb(167,179,197)" stroke="rgb(167,179,197)" stroke-width="1" opacity="1" d="M 184.5 43 L 183.5 45 L 184.5 43 Z " /><path fill="rgb(167,179,197)" stroke="rgb(167,179,197)" stroke-width="1" opacity="1" d="M 213.5 47 L 214 49.5 L 213 49.5 L 213.5 47 Z " /><path fill="rgb(167,179,197)" stroke="rgb(167,179,197)" stroke-width="1" opacity="1" d="M 174.5 49 L 173.5 51 L 174.5 49 Z " /><path fill="rgb(167,179,197)" stroke="rgb(167,179,197)" stroke-width="1" opacity="1" d="M 178.5 49 L 176.5 52 L 178.5 49 Z " /><path fill="rgb(167,179,197)" stroke="rgb(167,179,197)" stroke-width="1" opacity="1" d="M 215.5 50 L 216 52.5 L 215 52.5 L 215.5 50 Z " /><path fill="rgb(167,179,197)" stroke="rgb(167,179,197)" stroke-width="1" opacity="1" d="M 214.5 54 L 215 56.5 L 214 56.5 L 214.5 54 Z " /><path fill="rgb(167,179,197)" stroke="rgb(167,179,197)" stroke-width="1" opacity="1" d="M 213.5 58 L 214 60.5 L 213 60.5 L 213.5 58 Z " /><path fill="rgb(167,179,197)" stroke="rgb(167,179,197)" stroke-width="1" opacity="1" d="M 154.5 60 L 157 60.5 L 154.5 61 L 154.5 60 Z " /><path fill="rgb(167,179,197)" stroke="rgb(167,179,197)" stroke-width="1" opacity="1" d="M 149.5 61 L 153 61.5 L 149.5 62 L 149.5 61 Z " /><path fill="rgb(167,179,197)" stroke="rgb(167,179,197)" stroke-width="1" opacity="1" d="M 144.5 62 L 148 62.5 L 144.5 63 L 144.5 62 Z " /><path fill="rgb(167,179,197)" stroke="rgb(167,179,197)" stroke-width="1" opacity="1" d="M 212.5 62 L 213 64.5 L 212 64.5 L 212.5 62 Z " /><path fill="rgb(167,179,197)" stroke="rgb(167,179,197)" stroke-width="1" opacity="1" d="M 140.5 63 L 143 63.5 L 140.5 64 L 140.5 63 Z " /><path fill="rgb(167,179,197)" stroke="rgb(167,179,197)" stroke-width="1" opacity="1" d="M 211.5 66 L 212 68.5 L 211 68.5 L 211.5 66 Z " /><path fill="rgb(167,179,197)" stroke="rgb(167,179,197)" stroke-width="1" opacity="1" d="M 118.5 71 L 117.5 73 L 118.5 71 Z " /><path fill="rgb(167,179,197)" stroke="rgb(167,179,197)" stroke-width="1" opacity="1" d="M 119.5 73 L 117.5 76 L 119.5 73 Z " /><path fill="rgb(167,179,197)" stroke="rgb(167,179,197)" stroke-width="1" opacity="1" d="M 114.5 74 L 111.5 78 L 114.5 74 Z " /><path fill="rgb(167,179,197)" stroke="rgb(167,179,197)" stroke-width="1" opacity="1" d="M 204.5 76 L 204 77.5 L 202.5 80 L 203 78.5 L 204.5 76 Z " /><path fill="rgb(167,179,197)" stroke="rgb(167,179,197)" stroke-width="1" opacity="1" d="M 208.5 77 L 209 79.5 L 208 79.5 L 208.5 77 Z " /><path fill="rgb(167,179,197)" stroke="rgb(167,179,197)" stroke-width="1" opacity="1" d="M 110.5 79 L 109.5 81 L 110.5 79 Z " /><path fill="rgb(167,179,197)" stroke="rgb(167,179,197)" stroke-width="1" opacity="1" d="M 172.5 79 L 173.5 81 L 171 80.5 L 172.5 79 Z " /><path fill="rgb(167,179,197)" stroke="rgb(167,179,197)" stroke-width="1" opacity="1" d="M 112.5 80 L 111.5 82 L 112.5 80 Z " /><path fill="rgb(167,179,197)" stroke="rgb(167,179,197)" stroke-width="1" opacity="1" d="M 201.5 81 L 194.5 89 Q 189.9 90.3 192 84.5 L 193 84.5 Q 191.5 88.9 194.5 88 L 201.5 81 Z " /><path fill="rgb(167,179,197)" stroke="rgb(167,179,197)" stroke-width="1" opacity="1" d="M 108.5 82 L 107.5 84 L 108.5 82 Z " /><path fill="rgb(167,179,197)" stroke="rgb(167,179,197)" stroke-width="1" opacity="1" d="M 203.5 82 L 199.5 87 L 203.5 82 Z " /><path fill="rgb(167,179,197)" stroke="rgb(167,179,197)" stroke-width="1" opacity="1" d="M 208.5 82 L 209 85.5 L 208 85.5 L 208.5 82 Z " /><path fill="rgb(167,179,197)" stroke="rgb(167,179,197)" stroke-width="1" opacity="1" d="M 110.5 83 L 109.5 85 L 110.5 83 Z " /><path fill="rgb(167,179,197)" stroke="rgb(167,179,197)" stroke-width="1" opacity="1" d="M 169.5 84 L 170 85.5 L 168.5 88 L 168 86.5 L 169.5 84 Z " /><path fill="rgb(167,179,197)" stroke="rgb(167,179,197)" stroke-width="1" opacity="1" d="M 205.5 84 L 206 86.5 L 205 86.5 L 205.5 84 Z " /><path fill="rgb(167,179,197)" stroke="rgb(167,179,197)" stroke-width="1" opacity="1" d="M 106.5 85 L 104.5 88 L 106.5 85 Z " /><path fill="rgb(167,179,197)" stroke="rgb(167,179,197)" stroke-width="1" opacity="1" d="M 108.5 86 L 107.5 88 L 108.5 86 Z " /><path fill="rgb(167,179,197)" stroke="rgb(167,179,197)" stroke-width="1" opacity="1" d="M 102.5 89 L 101.5 91 L 102.5 89 Z " /><path fill="rgb(167,179,197)" stroke="rgb(167,179,197)" stroke-width="1" opacity="1" d="M 139.5 91 L 142 91.5 L 139.5 92 L 139.5 91 Z " /><path fill="rgb(167,179,197)" stroke="rgb(167,179,197)" stroke-width="1" opacity="1" d="M 166.5 91 L 165.5 93 L 166.5 91 Z " /><path fill="rgb(167,179,197)" stroke="rgb(167,179,197)" stroke-width="1" opacity="1" d="M 85.5 92 L 89 92.5 L 85.5 93 L 85.5 92 Z " /><path fill="rgb(167,179,197)" stroke="rgb(167,179,197)" stroke-width="1" opacity="1" d="M 147.5 92 L 151 92.5 L 147.5 93 L 147.5 92 Z " /><path fill="rgb(167,179,197)" stroke="rgb(167,179,197)" stroke-width="1" opacity="1" d="M 128.5 93 L 139 93.5 L 128.5 94 L 128.5 93 Z " /><path fill="rgb(167,179,197)" stroke="rgb(167,179,197)" stroke-width="1" opacity="1" d="M 157.5 93 L 163 93.5 L 157.5 94 L 157.5 93 Z " /><path fill="rgb(167,179,197)" stroke="rgb(167,179,197)" stroke-width="1" opacity="1" d="M 191.5 93 L 196 96.5 L 192.5 94 L 191.5 93 Z " /><path fill="rgb(167,179,197)" stroke="rgb(167,179,197)" stroke-width="1" opacity="1" d="M 77.5 94 L 82 95.5 L 79.5 96 L 77.5 95 L 77 97.5 L 76.5 99 L 76 97.5 L 77.5 94 Z " /><path fill="rgb(167,179,197)" stroke="rgb(167,179,197)" stroke-width="1" opacity="1" d="M 85.5 94 L 92 94.5 L 85.5 95 L 85.5 94 Z " /><path fill="rgb(167,179,197)" stroke="rgb(167,179,197)" stroke-width="1" opacity="1" d="M 144.5 94 L 149 94.5 L 144.5 95 L 144.5 94 Z " /><path fill="rgb(167,179,197)" stroke="rgb(167,179,197)" stroke-width="1" opacity="1" d="M 189.5 94 L 185.5 99 L 189.5 94 Z " /><path fill="rgb(167,179,197)" stroke="rgb(167,179,197)" stroke-width="1" opacity="1" d="M 114.5 95 L 113.5 97 L 111.5 98 L 112.5 96 L 114.5 95 Z " /><path fill="rgb(167,179,197)" stroke="rgb(167,179,197)" stroke-width="1" opacity="1" d="M 152.5 95 L 157 95.5 L 152.5 96 L 152.5 95 Z " /><path fill="rgb(167,179,197)" stroke="rgb(167,179,197)" stroke-width="1" opacity="1" d="M 184.5 95 L 183.5 97 L 184.5 95 Z " /><path fill="rgb(167,179,197)" stroke="rgb(167,179,197)" stroke-width="1" opacity="1" d="M 202.5 95 L 205 95.5 L 202.5 96 L 202.5 95 Z " /><path fill="rgb(167,179,197)" stroke="rgb(167,179,197)" stroke-width="1" opacity="1" d="M 214.5 95 L 212.5 98 L 211 97.5 L 214.5 95 Z " /><path fill="rgb(167,179,197)" stroke="rgb(167,179,197)" stroke-width="1" opacity="1" d="M 74.5 96 L 74 97.5 L 76 100.5 L 73 98.5 L 74.5 96 Z " /><path fill="rgb(167,179,197)" stroke="rgb(167,179,197)" stroke-width="1" opacity="1" d="M 116.5 96 L 118 96.5 L 115.5 98 L 116.5 96 Z " /><path fill="rgb(167,179,197)" stroke="rgb(167,179,197)" stroke-width="1" opacity="1" d="M 159.5 96 L 163 96.5 L 159.5 97 L 159.5 96 Z " /><path fill="rgb(167,179,197)" stroke="rgb(167,179,197)" stroke-width="1" opacity="1" d="M 109.5 98 L 108.5 100 L 109.5 98 Z " /><path fill="rgb(167,179,197)" stroke="rgb(167,179,197)" stroke-width="1" opacity="1" d="M 168.5 98 L 169 99.5 L 167 100.5 L 168.5 98 Z " /><path fill="rgb(167,179,197)" stroke="rgb(167,179,197)" stroke-width="1" opacity="1" d="M 200.5 98 L 204 98.5 L 200.5 99 L 200.5 98 Z " /><path fill="rgb(167,179,197)" stroke="rgb(167,179,197)" stroke-width="1" opacity="1" d="M 206.5 98 L 210 98.5 L 206.5 99 L 206.5 98 Z " /><path fill="rgb(167,179,197)" stroke="rgb(167,179,197)" stroke-width="1" opacity="1" d="M 78.5 99 Q 85.5 97.5 85 100.5 L 83.5 100 Q 77.5 101.3 78.5 99 Z " /><path fill="rgb(167,179,197)" stroke="rgb(167,179,197)" stroke-width="1" opacity="1" d="M 111.5 99 L 110.5 101 L 111.5 99 Z " /><path fill="rgb(167,179,197)" stroke="rgb(167,179,197)" stroke-width="1" opacity="1" d="M 181.5 99 L 178.5 103 L 181.5 99 Z " /><path fill="rgb(167,179,197)" stroke="rgb(167,179,197)" stroke-width="1" opacity="1" d="M 80.5 101 L 79.5 103 L 80.5 101 Z " /><path fill="rgb(167,179,197)" stroke="rgb(167,179,197)" stroke-width="1" opacity="1" d="M 77.5 103 L 76 105.5 L 75.5 107 L 75 105.5 L 77.5 103 Z " /><path fill="rgb(167,179,197)" stroke="rgb(167,179,197)" stroke-width="1" opacity="1" d="M 165.5 104 L 164.5 106 L 165.5 104 Z " /><path fill="rgb(167,179,197)" stroke="rgb(167,179,197)" stroke-width="1" opacity="1" d="M 175.5 104 L 174.5 106 L 175.5 104 Z " /><path fill="rgb(167,179,197)" stroke="rgb(167,179,197)" stroke-width="1" opacity="1" d="M 181.5 104 L 178.5 108 L 176.5 109 L 177.5 107 L 181.5 104 Z " /><path fill="rgb(167,179,197)" stroke="rgb(167,179,197)" stroke-width="1" opacity="1" d="M 160.5 106 L 159.5 108 L 160.5 106 Z " /><path fill="rgb(167,179,197)" stroke="rgb(167,179,197)" stroke-width="1" opacity="1" d="M 162.5 108 L 166 109.5 L 162.5 111 Q 159.5 109.5 162.5 108 Z " /><path fill="rgb(167,179,197)" stroke="rgb(167,179,197)" stroke-width="1" opacity="1" d="M 79.5 109 L 84 109.5 L 79.5 110 L 79.5 109 Z " /><path fill="rgb(167,179,197)" stroke="rgb(167,179,197)" stroke-width="1" opacity="1" d="M 87.5 109 L 93 109.5 L 87.5 110 L 87.5 109 Z " /><path fill="rgb(167,179,197)" stroke="rgb(167,179,197)" stroke-width="1" opacity="1" d="M 157.5 110 L 156.5 112 L 157.5 110 Z " /><path fill="rgb(167,179,197)" stroke="rgb(167,179,197)" stroke-width="1" opacity="1" d="M 156.5 113 L 162 113.5 L 156.5 114 L 156.5 113 Z " /><path fill="rgb(167,179,197)" stroke="rgb(167,179,197)" stroke-width="1" opacity="1" d="M 152.5 116 Q 156.5 115.5 157 118.5 L 156.5 121 L 154.5 117 Q 151.5 117.5 152.5 116 Z " /><path fill="rgb(167,179,197)" stroke="rgb(167,179,197)" stroke-width="1" opacity="1" d="M 85.5 117 L 84.5 119 L 85.5 117 Z " /><path fill="rgb(167,179,197)" stroke="rgb(167,179,197)" stroke-width="1" opacity="1" d="M 201.5 117 L 214 117.5 L 201 118 L 201 156 L 218.5 156 L 218.5 157 L 201.5 157 L 200 155.5 L 200 118.5 L 201.5 117 Z " /><path fill="rgb(167,179,197)" stroke="rgb(167,179,197)" stroke-width="1" opacity="1" d="M 241.5 117 L 252 117.5 L 241.5 118 L 241.5 117 Z " /><path fill="rgb(167,179,197)" stroke="rgb(167,179,197)" stroke-width="1" opacity="1" d="M 52.5 118 L 53 121.5 L 52 121.5 L 52.5 118 Z " /><path fill="rgb(167,179,197)" stroke="rgb(167,179,197)" stroke-width="1" opacity="1" d="M 86.5 120 L 87 124.5 L 86 124.5 L 86.5 120 Z " /><path fill="rgb(167,179,197)" stroke="rgb(167,179,197)" stroke-width="1" opacity="1" d="M 204 121 L 214 121.5 L 205 122 L 204.5 153 L 204 121 Z " /><path fill="rgb(167,179,197)" stroke="rgb(167,179,197)" stroke-width="1" opacity="1" d="M 226.5 121 L 229.5 125 L 226.5 121 Z " /><path fill="rgb(167,179,197)" stroke="rgb(167,179,197)" stroke-width="1" opacity="1" d="M 245 121 L 253 121.5 L 246 122 L 246 133 L 251.5 133 L 251.5 134 L 245 134 L 245 121 Z " /><path fill="rgb(167,179,197)" stroke="rgb(167,179,197)" stroke-width="1" opacity="1" d="M 221.5 123 L 222.5 125 L 221.5 123 Z " /><path fill="rgb(167,179,197)" stroke="rgb(167,179,197)" stroke-width="1" opacity="1" d="M 51.5 124 L 52 128.5 L 51 128.5 L 51.5 124 Z " /><path fill="rgb(167,179,197)" stroke="rgb(167,179,197)" stroke-width="1" opacity="1" d="M 261.5 124 L 262 129.5 L 261 129.5 L 261.5 124 Z " /><path fill="rgb(167,179,197)" stroke="rgb(167,179,197)" stroke-width="1" opacity="1" d="M 224.5 125 L 225.5 127 L 224.5 125 Z " /><path fill="rgb(167,179,197)" stroke="rgb(167,179,197)" stroke-width="1" opacity="1" d="M 87.5 127 L 88 131.5 L 87 131.5 L 87.5 127 Z " /><path fill="rgb(167,179,197)" stroke="rgb(167,179,197)" stroke-width="1" opacity="1" d="M 123.5 127 L 127 127.5 L 123 128 L 122.5 132 Q 119.7 130.8 122 129.5 L 123.5 127 Z " /><path fill="rgb(167,179,197)" stroke="rgb(167,179,197)" stroke-width="1" opacity="1" d="M 133.5 127 L 137 127.5 L 133 128 L 133 155.5 L 136.5 156 L 136.5 157 Q 132.8 157.8 132 155.5 L 132 128.5 L 133.5 127 Z " /><path fill="rgb(167,179,197)" stroke="rgb(167,179,197)" stroke-width="1" opacity="1" d="M 152.5 127 L 156 128.5 L 156 155.5 L 154.5 157 L 151 156.5 L 151 128.5 L 152.5 127 Z M 152 128 L 152 156 L 155 156 L 155 129 L 152 128 Z " /><path fill="rgb(167,179,197)" stroke="rgb(167,179,197)" stroke-width="1" opacity="1" d="M 189.5 127 L 193 128.5 L 193 155.5 L 191.5 157 L 188 155.5 L 188.5 152 L 189 156 L 192 155.5 L 192 128 L 189 128 L 189 132 L 187.5 132 L 185.5 129 L 188 130.5 L 189.5 127 Z " /><path fill="rgb(167,179,197)" stroke="rgb(167,179,197)" stroke-width="1" opacity="1" d="M 104.5 128 L 103.5 130 L 104.5 128 Z " /><path fill="rgb(167,179,197)" stroke="rgb(167,179,197)" stroke-width="1" opacity="1" d="M 146.5 128 L 145.5 130 L 146.5 128 Z " /><path fill="rgb(167,179,197)" stroke="rgb(167,179,197)" stroke-width="1" opacity="1" d="M 226.5 128 L 228 130.5 L 227 130.5 L 226.5 128 Z " /><path fill="rgb(167,179,197)" stroke="rgb(167,179,197)" stroke-width="1" opacity="1" d="M 168.5 129 L 165.5 133 L 168.5 129 Z " /><path fill="rgb(167,179,197)" stroke="rgb(167,179,197)" stroke-width="1" opacity="1" d="M 55.5 130 L 55 131.5 L 54.5 134 L 54 131.5 L 55.5 130 Z " /><path fill="rgb(167,179,197)" stroke="rgb(167,179,197)" stroke-width="1" opacity="1" d="M 110.5 130 L 113 130.5 L 110.5 131 L 110.5 130 Z " /><path fill="rgb(167,179,197)" stroke="rgb(167,179,197)" stroke-width="1" opacity="1" d="M 176.5 130 L 179 130.5 L 176.5 131 L 176.5 130 Z " /><path fill="rgb(167,179,197)" stroke="rgb(167,179,197)" stroke-width="1" opacity="1" d="M 256.5 130 L 254.5 133 L 253 132.5 L 256.5 130 Z " /><path fill="rgb(167,179,197)" stroke="rgb(167,179,197)" stroke-width="1" opacity="1" d="M 107.5 131 L 109 131.5 L 103.5 135 L 105.5 132 L 107.5 131 Z " /><path fill="rgb(167,179,197)" stroke="rgb(167,179,197)" stroke-width="1" opacity="1" d="M 115.5 131 L 121 134.5 L 118.5 133 Q 114.7 132.8 115.5 131 Z " /><path fill="rgb(167,179,197)" stroke="rgb(167,179,197)" stroke-width="1" opacity="1" d="M 50.5 132 L 51 135.5 L 50 135.5 L 50.5 132 Z " /><path fill="rgb(167,179,197)" stroke="rgb(167,179,197)" stroke-width="1" opacity="1" d="M 171.5 132 L 168 136.5 L 166.5 146 L 166 138.5 L 171.5 132 Z " /><path fill="rgb(167,179,197)" stroke="rgb(167,179,197)" stroke-width="1" opacity="1" d="M 183.5 132 L 184.5 134 L 183.5 132 Z " /><path fill="rgb(167,179,197)" stroke="rgb(167,179,197)" stroke-width="1" opacity="1" d="M 61.5 133 L 65 139.5 L 64 139.5 L 61.5 133 Z " /><path fill="rgb(167,179,197)" stroke="rgb(167,179,197)" stroke-width="1" opacity="1" d="M 99.5 133 L 98.5 135 L 99.5 133 Z " /><path fill="rgb(167,179,197)" stroke="rgb(167,179,197)" stroke-width="1" opacity="1" d="M 88.5 135 L 89 138.5 L 88 138.5 L 88.5 135 Z " /><path fill="rgb(167,179,197)" stroke="rgb(167,179,197)" stroke-width="1" opacity="1" d="M 233.5 135 L 234 139.5 L 233 139.5 L 233.5 135 Z " /><path fill="rgb(167,179,197)" stroke="rgb(167,179,197)" stroke-width="1" opacity="1" d="M 121.5 136 L 123 138.5 L 122 138.5 L 121.5 136 Z " /><path fill="rgb(167,179,197)" stroke="rgb(167,179,197)" stroke-width="1" opacity="1" d="M 261.5 137 L 262.5 139 L 261.5 137 Z " /><path fill="rgb(167,179,197)" stroke="rgb(167,179,197)" stroke-width="1" opacity="1" d="M 53.5 138 L 54 141.5 L 53 141.5 L 53.5 138 Z " /><path fill="rgb(167,179,197)" stroke="rgb(167,179,197)" stroke-width="1" opacity="1" d="M 245.5 138 L 246 152 L 254 152.5 L 245 153 L 245.5 138 Z " /><path fill="rgb(167,179,197)" stroke="rgb(167,179,197)" stroke-width="1" opacity="1" d="M 49.5 140 L 50 142.5 L 49 142.5 L 49.5 140 Z " /><path fill="rgb(167,179,197)" stroke="rgb(167,179,197)" stroke-width="1" opacity="1" d="M 61.5 141 L 66 150.5 L 65 150.5 L 61 142.5 L 61.5 141 Z " /><path fill="rgb(167,179,197)" stroke="rgb(167,179,197)" stroke-width="1" opacity="1" d="M 85.5 141 L 86 145.5 L 85 145.5 L 85.5 141 Z " /><path fill="rgb(167,179,197)" stroke="rgb(167,179,197)" stroke-width="1" opacity="1" d="M 100.5 141 L 101 143.5 L 100 143.5 L 100.5 141 Z " /><path fill="rgb(167,179,197)" stroke="rgb(167,179,197)" stroke-width="1" opacity="1" d="M 89.5 142 L 90 145.5 L 89 145.5 L 89.5 142 Z " /><path fill="rgb(167,179,197)" stroke="rgb(167,179,197)" stroke-width="1" opacity="1" d="M 264.5 142 L 265 148.5 L 264 148.5 L 264.5 142 Z " /><path fill="rgb(167,179,197)" stroke="rgb(167,179,197)" stroke-width="1" opacity="1" d="M 188.5 143 L 189 145.5 L 188 145.5 L 188.5 143 Z " /><path fill="rgb(167,179,197)" stroke="rgb(167,179,197)" stroke-width="1" opacity="1" d="M 227.5 144 L 228 145.5 L 226 146.5 L 227.5 144 Z " /><path fill="rgb(167,179,197)" stroke="rgb(167,179,197)" stroke-width="1" opacity="1" d="M 260.5 144 L 261 146.5 L 260 146.5 L 260.5 144 Z " /><path fill="rgb(167,179,197)" stroke="rgb(167,179,197)" stroke-width="1" opacity="1" d="M 52.5 145 L 53 149.5 L 52 149.5 L 52.5 145 Z " /><path fill="rgb(167,179,197)" stroke="rgb(167,179,197)" stroke-width="1" opacity="1" d="M 48.5 147 L 49 149.5 L 48 149.5 L 48.5 147 Z " /><path fill="rgb(167,179,197)" stroke="rgb(167,179,197)" stroke-width="1" opacity="1" d="M 68.5 147 L 69.5 149 L 68.5 147 Z " /><path fill="rgb(167,179,197)" stroke="rgb(167,179,197)" stroke-width="1" opacity="1" d="M 86.5 149 L 87 153.5 L 86 153.5 L 86.5 149 Z " /><path fill="rgb(167,179,197)" stroke="rgb(167,179,197)" stroke-width="1" opacity="1" d="M 90.5 149 L 91 151.5 L 90 151.5 L 90.5 149 Z " /><path fill="rgb(167,179,197)" stroke="rgb(167,179,197)" stroke-width="1" opacity="1" d="M 168.5 149 L 170.5 152 L 168.5 149 Z " /><path fill="rgb(167,179,197)" stroke="rgb(167,179,197)" stroke-width="1" opacity="1" d="M 99.5 151 L 107 156.5 L 105.5 157 L 99.5 151 Z " /><path fill="rgb(167,179,197)" stroke="rgb(167,179,197)" stroke-width="1" opacity="1" d="M 105.5 151 L 106.5 153 L 105.5 151 Z " /><path fill="rgb(167,179,197)" stroke="rgb(167,179,197)" stroke-width="1" opacity="1" d="M 118.5 151 L 117.5 153 L 118.5 151 Z " /><path fill="rgb(167,179,197)" stroke="rgb(167,179,197)" stroke-width="1" opacity="1" d="M 228.5 151 L 227.5 153 L 228.5 151 Z " /><path fill="rgb(167,179,197)" stroke="rgb(167,179,197)" stroke-width="1" opacity="1" d="M 212.5 152 L 217 152.5 L 212.5 153 L 212.5 152 Z " /><path fill="rgb(167,179,197)" stroke="rgb(167,179,197)" stroke-width="1" opacity="1" d="M 51.5 153 L 52 155.5 Q 50.8 158 47 157 L 47.5 154 L 48 156 Q 52.3 157.5 51.5 153 Z " /><path fill="rgb(167,179,197)" stroke="rgb(167,179,197)" stroke-width="1" opacity="1" d="M 121.5 153 Q 124.5 152.2 123 156 L 126.5 156 L 126.5 157 Q 122.8 157.8 122 155.5 L 121.5 154 L 120 154.5 L 121.5 153 Z " /><path fill="rgb(167,179,197)" stroke="rgb(167,179,197)" stroke-width="1" opacity="1" d="M 225.5 153 L 224.5 155 L 225.5 153 Z " /><path fill="rgb(167,179,197)" stroke="rgb(167,179,197)" stroke-width="1" opacity="1" d="M 168.5 154 L 169.5 156 L 168.5 154 Z " /><path fill="rgb(167,179,197)" stroke="rgb(167,179,197)" stroke-width="1" opacity="1" d="M 185.5 154 L 184.5 156 L 185.5 154 Z " /><path fill="rgb(167,179,197)" stroke="rgb(167,179,197)" stroke-width="1" opacity="1" d="M 259.5 154 L 258.5 156 L 257 155.5 L 259.5 154 Z " /><path fill="rgb(167,179,197)" stroke="rgb(167,179,197)" stroke-width="1" opacity="1" d="M 70.5 155 L 69.5 157 L 70.5 155 Z " /><path fill="rgb(167,179,197)" stroke="rgb(167,179,197)" stroke-width="1" opacity="1" d="M 118.5 155 L 117.5 157 L 116 156.5 L 118.5 155 Z " /><path fill="rgb(167,179,197)" stroke="rgb(167,179,197)" stroke-width="1" opacity="1" d="M 220.5 155 L 223 155.5 L 220.5 156 L 220.5 155 Z " /><path fill="rgb(167,179,197)" stroke="rgb(167,179,197)" stroke-width="1" opacity="1" d="M 87.5 156 L 91 156.5 L 87.5 157 L 87.5 156 Z " /><path fill="rgb(167,179,197)" stroke="rgb(167,179,197)" stroke-width="1" opacity="1" d="M 241.5 156 L 256 156.5 L 241.5 157 L 241.5 156 Z " /><path fill="rgb(167,179,197)" stroke="rgb(167,179,197)" stroke-width="1" opacity="1" d="M 109.5 157 L 114 157.5 L 109.5 158 L 109.5 157 Z " /><path fill="rgb(167,179,197)" stroke="rgb(167,179,197)" stroke-width="1" opacity="1" d="M 175.5 157 L 180 157.5 L 175.5 158 L 175.5 157 Z " /><path fill="rgb(16,49,106)" stroke="rgb(16,49,106)" stroke-width="1" opacity="1" d="M 232.5 4 Q 238.6 2.8 238 5.5 L 239 10.5 Q 236.9 18.9 230.5 23 L 220 32.5 L 217 40.5 L 216 49.5 L 210 73.5 L 208 77.5 L 208 85.5 L 212 95 L 214 95.5 L 210.5 98 L 204.5 99 L 196.5 97 L 191.5 93 L 185 98.5 L 178.5 107 Q 170.7 113.2 156.5 113 L 158 110.5 L 166 97.5 L 148.5 94 L 128.5 93 L 116.5 96 L 99.5 107 L 84.5 110 L 76 108 Q 75.3 104.2 78.5 103 L 81 101.5 Q 75.5 102 74 98.5 L 75.5 96 L 82.5 93 L 101.5 91 L 107 85.5 Q 110.3 77.8 116.5 73 L 131.5 64 L 165.5 55 Q 176.8 50.8 183 41.5 L 195 21.5 L 205.5 11 L 212.5 8 L 229.5 6 L 232.5 4 Z M 229 8 L 228 9 L 214 10 L 203 16 L 183 46 Q 175 54 164 58 L 135 65 L 120 73 Q 111 79 107 89 L 102 93 L 86 94 L 78 96 L 76 99 L 79 100 Q 85 99 84 102 L 80 105 Q 77 104 78 107 L 93 107 Q 108 102 120 93 L 127 91 L 139 91 L 148 93 L 157 93 L 158 94 L 166 93 L 171 82 L 173 81 L 173 87 L 171 94 L 164 107 Q 159 109 163 111 L 179 103 Q 187 95 191 83 L 192 83 L 192 89 L 195 89 Q 203 83 207 73 L 211 62 L 218 32 L 230 22 Q 236 19 236 11 L 233 10 Q 230 11 231 8 L 229 8 Z M 204 82 L 197 90 L 197 93 Q 200 97 209 96 L 205 84 Q 206 81 204 82 Z " /><path fill="rgb(16,49,106)" stroke="rgb(16,49,106)" stroke-width="1" opacity="1" d="M 228.5 10 L 231 11.5 L 229.5 16 L 229 14.5 L 229.5 13 L 225.5 15 L 227 12.5 L 228.5 10 Z " /><path fill="rgb(16,49,106)" stroke="rgb(16,49,106)" stroke-width="1" opacity="1" d="M 214.5 14 Q 220.3 11.9 219 16.5 Q 217.3 20.5 211 19 L 212 15 L 214.5 14 Z " /><path fill="rgb(16,49,106)" stroke="rgb(16,49,106)" stroke-width="1" opacity="1" d="M 151 117 Q 154.8 116 156 118.5 Q 157.5 122.9 154.5 122 L 152.5 123 L 150 119.5 L 151 117 Z " /><path fill="rgb(16,49,106)" stroke="rgb(16,49,106)" stroke-width="1" opacity="1" d="M 53.5 118 L 69.5 149 L 85.5 118 L 91 156 L 87 156 L 87 149.5 L 83.5 130 L 69.5 156 Q 67.3 156.8 68 154.5 L 55.5 130 L 54 131.5 L 51 156 Q 45.8 157.8 48 150.5 L 49 149.5 L 49 143.5 L 53.5 118 Z " /><path fill="rgb(16,49,106)" stroke="rgb(16,49,106)" stroke-width="1" opacity="1" d="M 201 118 L 218.5 118 Q 226.1 119.8 230 125.5 Q 234.5 131 233 142.5 Q 231.5 149.5 226.5 153 L 219.5 156 L 201 156 L 201 118 Z M 204 121 L 204 153 Q 215 155 223 151 Q 228 149 229 143 Q 231 131 226 127 L 219 122 L 204 121 Z " /><path fill="rgb(16,49,106)" stroke="rgb(16,49,106)" stroke-width="1" opacity="1" d="M 241 118 L 254.5 118 L 260 121.5 L 261 130.5 L 258 135.5 L 263 139.5 Q 265.3 142.7 264 149.5 L 260.5 154 L 256.5 156 L 241 156 L 241 118 Z M 245 121 L 245 134 L 255 133 L 258 128 L 257 125 Q 254 119 245 121 Z M 245 138 L 245 153 L 257 152 L 261 147 L 259 140 Q 255 137 245 138 Z " /><path fill="rgb(16,49,106)" stroke="rgb(16,49,106)" stroke-width="1" opacity="1" d="M 108.5 127 Q 119.5 125.5 122.5 132 L 123 128 L 127 128.5 L 127 156 L 123 156 Q 124.5 152.2 121.5 153 Q 118.1 158.6 107.5 157 L 99 150.5 Q 96 146.5 97 138.5 L 102.5 130 L 108.5 127 Z M 111 130 L 106 132 L 100 142 L 102 149 L 109 154 L 118 153 L 123 147 Q 125 138 121 135 Q 118 130 111 130 Z " /><path fill="rgb(16,49,106)" stroke="rgb(16,49,106)" stroke-width="1" opacity="1" d="M 141.5 127 Q 146.9 125.1 146 128.5 L 145 131 L 140 131 L 140 132.5 L 137 137.5 L 137 156 L 133 155.5 L 133 128 Q 138.2 125.9 137 130.5 L 138 130.5 L 139.5 128 L 141.5 127 Z " /><path fill="rgb(16,49,106)" stroke="rgb(16,49,106)" stroke-width="1" opacity="1" d="M 173.5 127 L 183.5 128 L 189 132 Q 187.1 126.4 192 128 L 192 155.5 L 189 156 L 188.5 152 L 181.5 157 L 172.5 157 L 165 151.5 L 162 144.5 L 162 139.5 Q 163.8 132.3 169.5 129 L 173.5 127 Z M 177 130 L 172 132 L 166 139 Q 165 146 168 150 L 175 154 L 183 153 L 189 146 Q 190 139 187 136 Q 184 131 177 130 Z " /><path fill="rgb(16,49,106)" stroke="rgb(16,49,106)" stroke-width="1" opacity="1" d="M 152 128 L 155 128.5 L 155 156 L 152 155.5 L 152 128 Z " /><path fill="rgb(238,241,245)" stroke="rgb(238,241,245)" stroke-width="1" opacity="1" d="M 234.5 2 L 236 2.5 L 232.5 4 L 232.5 3 L 234.5 2 Z " /><path fill="rgb(238,241,245)" stroke="rgb(238,241,245)" stroke-width="1" opacity="1" d="M 239.5 5 L 240 11.5 L 239 11.5 L 239.5 5 Z " /><path fill="rgb(238,241,245)" stroke="rgb(238,241,245)" stroke-width="1" opacity="1" d="M 216.5 6 L 219 6.5 L 216.5 7 L 216.5 6 Z " /><path fill="rgb(238,241,245)" stroke="rgb(238,241,245)" stroke-width="1" opacity="1" d="M 229.5 8 L 232 11.5 L 231 11.5 Q 231.7 8.9 229 10 L 229.5 8 Z " /><path fill="rgb(238,241,245)" stroke="rgb(238,241,245)" stroke-width="1" opacity="1" d="M 214.5 10 L 217 10.5 L 214.5 11 L 214.5 10 Z " /><path fill="rgb(238,241,245)" stroke="rgb(238,241,245)" stroke-width="1" opacity="1" d="M 234.5 11 L 236 13.5 L 234.5 16 L 234 14.5 L 235 12.5 L 234.5 11 Z " /><path fill="rgb(238,241,245)" stroke="rgb(238,241,245)" stroke-width="1" opacity="1" d="M 202.5 12 L 198.5 17 L 202.5 12 Z " /><path fill="rgb(238,241,245)" stroke="rgb(238,241,245)" stroke-width="1" opacity="1" d="M 225.5 12 L 224 14.5 L 222.5 17 L 223 15.5 L 225.5 12 Z " /><path fill="rgb(238,241,245)" stroke="rgb(238,241,245)" stroke-width="1" opacity="1" d="M 213.5 13 L 217 13.5 Q 212.3 13.3 211 16.5 L 212 19.5 L 210 20 Q 209 14.4 213.5 13 Z " /><path fill="rgb(238,241,245)" stroke="rgb(238,241,245)" stroke-width="1" opacity="1" d="M 204.5 15 L 199.5 21 L 204.5 15 Z " /><path fill="rgb(238,241,245)" stroke="rgb(238,241,245)" stroke-width="1" opacity="1" d="M 237.5 16 L 236.5 18 L 237.5 16 Z " /><path fill="rgb(238,241,245)" stroke="rgb(238,241,245)" stroke-width="1" opacity="1" d="M 221.5 18 L 222.5 20 L 224 19.5 L 224.5 21 L 225.5 18 L 226.5 21 L 227.5 19 L 228.5 21 L 229.5 18 L 230 20.5 L 227.5 23 L 223.5 21 Q 219.1 22.1 221.5 18 Z " /><path fill="rgb(238,241,245)" stroke="rgb(238,241,245)" stroke-width="1" opacity="1" d="M 232.5 18 L 231.5 20 L 232.5 18 Z " /><path fill="rgb(238,241,245)" stroke="rgb(238,241,245)" stroke-width="1" opacity="1" d="M 195.5 20 L 194.5 22 L 195.5 20 Z " /><path fill="rgb(238,241,245)" stroke="rgb(238,241,245)" stroke-width="1" opacity="1" d="M 232.5 21 L 231.5 23 L 232.5 21 Z " /><path fill="rgb(238,241,245)" stroke="rgb(238,241,245)" stroke-width="1" opacity="1" d="M 221.5 26 L 219.5 29 L 221.5 26 Z " /><path fill="rgb(238,241,245)" stroke="rgb(238,241,245)" stroke-width="1" opacity="1" d="M 226.5 26 L 221.5 32 L 226.5 26 Z " /><path fill="rgb(238,241,245)" stroke="rgb(238,241,245)" stroke-width="1" opacity="1" d="M 189.5 29 L 189 30.5 L 187.5 33 L 188 31.5 L 189.5 29 Z " /><path fill="rgb(238,241,245)" stroke="rgb(238,241,245)" stroke-width="1" opacity="1" d="M 193.5 30 L 193 31.5 L 191.5 34 L 192 32.5 L 193.5 30 Z " /><path fill="rgb(238,241,245)" stroke="rgb(238,241,245)" stroke-width="1" opacity="1" d="M 218.5 38 L 219 40.5 L 218 40.5 L 218.5 38 Z " /><path fill="rgb(238,241,245)" stroke="rgb(238,241,245)" stroke-width="1" opacity="1" d="M 182.5 40 L 181.5 42 L 182.5 40 Z " /><path fill="rgb(238,241,245)" stroke="rgb(238,241,245)" stroke-width="1" opacity="1" d="M 186.5 41 L 185.5 43 L 186.5 41 Z " /><path fill="rgb(238,241,245)" stroke="rgb(238,241,245)" stroke-width="1" opacity="1" d="M 217.5 42 L 218 46.5 L 216.5 51 L 216 47.5 L 217.5 42 Z " /><path fill="rgb(238,241,245)" stroke="rgb(238,241,245)" stroke-width="1" opacity="1" d="M 179.5 44 L 175.5 49 L 179.5 44 Z " /><path fill="rgb(238,241,245)" stroke="rgb(238,241,245)" stroke-width="1" opacity="1" d="M 184.5 44 L 178.5 51 L 184.5 44 Z " /><path fill="rgb(238,241,245)" stroke="rgb(238,241,245)" stroke-width="1" opacity="1" d="M 173.5 49 L 172.5 51 L 173.5 49 Z " /><path fill="rgb(238,241,245)" stroke="rgb(238,241,245)" stroke-width="1" opacity="1" d="M 212.5 49 L 213 51.5 L 212 51.5 L 212.5 49 Z " /><path fill="rgb(238,241,245)" stroke="rgb(238,241,245)" stroke-width="1" opacity="1" d="M 173.5 53 L 172.5 55 L 169.5 56 L 169.5 55 L 173.5 53 Z " /><path fill="rgb(238,241,245)" stroke="rgb(238,241,245)" stroke-width="1" opacity="1" d="M 211.5 53 L 212 56.5 L 210.5 60 L 210 57.5 L 211.5 53 Z " /><path fill="rgb(238,241,245)" stroke="rgb(238,241,245)" stroke-width="1" opacity="1" d="M 149.5 58 L 152 58.5 L 149.5 59 L 149.5 58 Z " /><path fill="rgb(238,241,245)" stroke="rgb(238,241,245)" stroke-width="1" opacity="1" d="M 144.5 59 L 147 59.5 L 144.5 60 L 144.5 59 Z " /><path fill="rgb(238,241,245)" stroke="rgb(238,241,245)" stroke-width="1" opacity="1" d="M 139.5 60 L 143 60.5 L 136.5 62 L 136.5 61 L 139.5 60 Z " /><path fill="rgb(238,241,245)" stroke="rgb(238,241,245)" stroke-width="1" opacity="1" d="M 120.5 69 L 119.5 71 L 120.5 69 Z " /><path fill="rgb(238,241,245)" stroke="rgb(238,241,245)" stroke-width="1" opacity="1" d="M 117.5 71 L 115.5 74 L 117.5 71 Z " /><path fill="rgb(238,241,245)" stroke="rgb(238,241,245)" stroke-width="1" opacity="1" d="M 123.5 71 L 122.5 73 L 123.5 71 Z " /><path fill="rgb(238,241,245)" stroke="rgb(238,241,245)" stroke-width="1" opacity="1" d="M 120.5 73 L 118.5 76 L 120.5 73 Z " /><path fill="rgb(238,241,245)" stroke="rgb(238,241,245)" stroke-width="1" opacity="1" d="M 116.5 76 L 113.5 80 L 116.5 76 Z " /><path fill="rgb(238,241,245)" stroke="rgb(238,241,245)" stroke-width="1" opacity="1" d="M 110.5 78 L 109.5 80 L 110.5 78 Z " /><path fill="rgb(238,241,245)" stroke="rgb(238,241,245)" stroke-width="1" opacity="1" d="M 201.5 80 L 199.5 83 L 201.5 80 Z " /><path fill="rgb(238,241,245)" stroke="rgb(238,241,245)" stroke-width="1" opacity="1" d="M 108.5 81 L 107.5 83 L 108.5 81 Z " /><path fill="rgb(238,241,245)" stroke="rgb(238,241,245)" stroke-width="1" opacity="1" d="M 112.5 81 L 111.5 83 L 112.5 81 Z " /><path fill="rgb(238,241,245)" stroke="rgb(238,241,245)" stroke-width="1" opacity="1" d="M 190.5 81 L 193 82.5 L 192.5 84 L 192 82 L 190.5 81 Z " /><path fill="rgb(238,241,245)" stroke="rgb(238,241,245)" stroke-width="1" opacity="1" d="M 204.5 82 L 205 84 L 198.5 89 L 204.5 82 Z " /><path fill="rgb(238,241,245)" stroke="rgb(238,241,245)" stroke-width="1" opacity="1" d="M 106.5 84 L 105.5 86 L 106.5 84 Z " /><path fill="rgb(238,241,245)" stroke="rgb(238,241,245)" stroke-width="1" opacity="1" d="M 110.5 84 L 109.5 86 L 110.5 84 Z " /><path fill="rgb(238,241,245)" stroke="rgb(238,241,245)" stroke-width="1" opacity="1" d="M 188.5 86 L 189 87.5 L 187.5 90 L 187 88.5 L 188.5 86 Z " /><path fill="rgb(238,241,245)" stroke="rgb(238,241,245)" stroke-width="1" opacity="1" d="M 108.5 87 L 103.5 93 L 108.5 87 Z " /><path fill="rgb(238,241,245)" stroke="rgb(238,241,245)" stroke-width="1" opacity="1" d="M 172.5 88 L 173 90.5 L 172 90.5 L 172.5 88 Z " /><path fill="rgb(238,241,245)" stroke="rgb(238,241,245)" stroke-width="1" opacity="1" d="M 197.5 92 L 200 93.5 L 198.5 94 L 197.5 92 Z " /><path fill="rgb(238,241,245)" stroke="rgb(238,241,245)" stroke-width="1" opacity="1" d="M 211.5 92 L 215 94.5 L 213.5 95 L 211.5 92 Z " /><path fill="rgb(238,241,245)" stroke="rgb(238,241,245)" stroke-width="1" opacity="1" d="M 76.5 94 L 75.5 96 L 76.5 94 Z " /><path fill="rgb(238,241,245)" stroke="rgb(238,241,245)" stroke-width="1" opacity="1" d="M 92.5 94 L 96 94.5 L 92.5 95 L 92.5 94 Z " /><path fill="rgb(238,241,245)" stroke="rgb(238,241,245)" stroke-width="1" opacity="1" d="M 192.5 94 L 193.5 96 L 192.5 94 Z " /><path fill="rgb(238,241,245)" stroke="rgb(238,241,245)" stroke-width="1" opacity="1" d="M 201.5 94 L 204 94.5 L 201.5 95 L 201.5 94 Z " /><path fill="rgb(238,241,245)" stroke="rgb(238,241,245)" stroke-width="1" opacity="1" d="M 208.5 94 L 209 96 L 205 95.5 L 208.5 94 Z " /><path fill="rgb(238,241,245)" stroke="rgb(238,241,245)" stroke-width="1" opacity="1" d="M 170.5 95 L 171 96.5 L 169.5 99 L 169 97.5 L 170.5 95 Z " /><path fill="rgb(238,241,245)" stroke="rgb(238,241,245)" stroke-width="1" opacity="1" d="M 73.5 96 L 73 97.5 L 75 100.5 L 72 98.5 L 73.5 96 Z " /><path fill="rgb(238,241,245)" stroke="rgb(238,241,245)" stroke-width="1" opacity="1" d="M 78.5 96 L 78 97.5 L 77.5 99 L 77 97.5 L 78.5 96 Z " /><path fill="rgb(238,241,245)" stroke="rgb(238,241,245)" stroke-width="1" opacity="1" d="M 111.5 96 L 110.5 98 L 111.5 96 Z " /><path fill="rgb(238,241,245)" stroke="rgb(238,241,245)" stroke-width="1" opacity="1" d="M 156.5 96 L 159 96.5 L 156.5 97 L 156.5 96 Z " /><path fill="rgb(238,241,245)" stroke="rgb(238,241,245)" stroke-width="1" opacity="1" d="M 214.5 96 L 213.5 98 L 214.5 96 Z " /><path fill="rgb(238,241,245)" stroke="rgb(238,241,245)" stroke-width="1" opacity="1" d="M 163.5 97 Q 166.1 96.2 165 99.5 L 164 99.5 L 163.5 97 Z " /><path fill="rgb(238,241,245)" stroke="rgb(238,241,245)" stroke-width="1" opacity="1" d="M 182.5 97 L 176.5 104 L 182.5 97 Z " /><path fill="rgb(238,241,245)" stroke="rgb(238,241,245)" stroke-width="1" opacity="1" d="M 108.5 98 L 107.5 100 L 108.5 98 Z " /><path fill="rgb(238,241,245)" stroke="rgb(238,241,245)" stroke-width="1" opacity="1" d="M 112.5 99 L 111.5 101 L 112.5 99 Z " /><path fill="rgb(238,241,245)" stroke="rgb(238,241,245)" stroke-width="1" opacity="1" d="M 185.5 99 L 184.5 101 L 185.5 99 Z " /><path fill="rgb(238,241,245)" stroke="rgb(238,241,245)" stroke-width="1" opacity="1" d="M 202.5 99 L 208 99.5 L 202.5 100 L 202.5 99 Z " /><path fill="rgb(238,241,245)" stroke="rgb(238,241,245)" stroke-width="1" opacity="1" d="M 168.5 100 L 167.5 102 L 168.5 100 Z " /><path fill="rgb(238,241,245)" stroke="rgb(238,241,245)" stroke-width="1" opacity="1" d="M 76.5 101 L 80 101.5 Q 78.8 104.3 77.5 102 L 76.5 101 Z " /><path fill="rgb(238,241,245)" stroke="rgb(238,241,245)" stroke-width="1" opacity="1" d="M 84.5 101 L 83.5 103 L 84.5 101 Z " /><path fill="rgb(238,241,245)" stroke="rgb(238,241,245)" stroke-width="1" opacity="1" d="M 109.5 101 L 108.5 103 L 109.5 101 Z " /><path fill="rgb(238,241,245)" stroke="rgb(238,241,245)" stroke-width="1" opacity="1" d="M 183.5 102 L 182.5 104 L 183.5 102 Z " /><path fill="rgb(238,241,245)" stroke="rgb(238,241,245)" stroke-width="1" opacity="1" d="M 92.5 105 L 95 105.5 L 92.5 106 L 92.5 105 Z " /><path fill="rgb(238,241,245)" stroke="rgb(238,241,245)" stroke-width="1" opacity="1" d="M 181.5 105 L 179.5 108 L 181.5 105 Z " /><path fill="rgb(238,241,245)" stroke="rgb(238,241,245)" stroke-width="1" opacity="1" d="M 79.5 106 L 91 106.5 L 79.5 107 L 79.5 106 Z " /><path fill="rgb(238,241,245)" stroke="rgb(238,241,245)" stroke-width="1" opacity="1" d="M 164.5 106 L 163.5 108 L 164.5 106 Z " /><path fill="rgb(238,241,245)" stroke="rgb(238,241,245)" stroke-width="1" opacity="1" d="M 75.5 107 L 79 109.5 L 77.5 110 L 75.5 107 Z " /><path fill="rgb(238,241,245)" stroke="rgb(238,241,245)" stroke-width="1" opacity="1" d="M 158.5 108 L 156.5 111 L 158.5 108 Z " /><path fill="rgb(238,241,245)" stroke="rgb(238,241,245)" stroke-width="1" opacity="1" d="M 81.5 110 L 89 110.5 L 81.5 111 L 81.5 110 Z " /><path fill="rgb(238,241,245)" stroke="rgb(238,241,245)" stroke-width="1" opacity="1" d="M 162.5 113 L 165 113.5 L 162.5 114 L 162.5 113 Z " /><path fill="rgb(238,241,245)" stroke="rgb(238,241,245)" stroke-width="1" opacity="1" d="M 151.5 116 L 150.5 118 L 151.5 116 Z " /><path fill="rgb(238,241,245)" stroke="rgb(238,241,245)" stroke-width="1" opacity="1" d="M 52.5 117 Q 55.8 115.9 55 118.5 L 56 120.5 L 55 120.5 L 53.5 118 L 52.5 117 Z " /><path fill="rgb(238,241,245)" stroke="rgb(238,241,245)" stroke-width="1" opacity="1" d="M 84.5 117 L 84 118.5 L 83.5 120 L 83 118.5 L 84.5 117 Z " /><path fill="rgb(238,241,245)" stroke="rgb(238,241,245)" stroke-width="1" opacity="1" d="M 86.5 117 L 87 119.5 L 86 119.5 L 86.5 117 Z " /><path fill="rgb(238,241,245)" stroke="rgb(238,241,245)" stroke-width="1" opacity="1" d="M 200.5 117 L 200 118.5 L 200 155.5 L 201.5 157 L 215 157.5 L 201.5 158 L 199 155.5 L 199 118.5 L 200.5 117 Z " /><path fill="rgb(238,241,245)" stroke="rgb(238,241,245)" stroke-width="1" opacity="1" d="M 214.5 117 Q 222.9 116.1 226 120.5 L 224.5 120 Q 221.2 117.3 214.5 118 L 214.5 117 Z " /><path fill="rgb(238,241,245)" stroke="rgb(238,241,245)" stroke-width="1" opacity="1" d="M 252.5 117 Q 258.9 117.1 261 121.5 L 257.5 119 L 252.5 118 L 252.5 117 Z " /><path fill="rgb(238,241,245)" stroke="rgb(238,241,245)" stroke-width="1" opacity="1" d="M 51.5 121 L 52 123.5 L 51 123.5 L 51.5 121 Z " /><path fill="rgb(238,241,245)" stroke="rgb(238,241,245)" stroke-width="1" opacity="1" d="M 156.5 121 L 154.5 124 L 152 123.5 L 156.5 121 Z " /><path fill="rgb(238,241,245)" stroke="rgb(238,241,245)" stroke-width="1" opacity="1" d="M 227.5 121 L 229.5 124 L 227.5 121 Z " /><path fill="rgb(238,241,245)" stroke="rgb(238,241,245)" stroke-width="1" opacity="1" d="M 209.5 122 Q 218.4 120.6 222 124.5 L 220.5 124 L 209.5 123 L 209.5 122 Z " /><path fill="rgb(238,241,245)" stroke="rgb(238,241,245)" stroke-width="1" opacity="1" d="M 250.5 122 L 254 122.5 L 250.5 123 L 250.5 122 Z " /><path fill="rgb(238,241,245)" stroke="rgb(238,241,245)" stroke-width="1" opacity="1" d="M 255.5 123 Q 258.3 124.3 257 129.5 L 256 129.5 L 255.5 123 Z " /><path fill="rgb(238,241,245)" stroke="rgb(238,241,245)" stroke-width="1" opacity="1" d="M 87.5 124 L 88 126.5 L 87 126.5 L 87.5 124 Z " /><path fill="rgb(238,241,245)" stroke="rgb(238,241,245)" stroke-width="1" opacity="1" d="M 223.5 125 L 225.5 128 L 223.5 125 Z " /><path fill="rgb(238,241,245)" stroke="rgb(238,241,245)" stroke-width="1" opacity="1" d="M 50.5 127 L 51 131.5 L 50 131.5 L 50.5 127 Z " /><path fill="rgb(238,241,245)" stroke="rgb(238,241,245)" stroke-width="1" opacity="1" d="M 139.5 127 L 137.5 130 L 137 128 L 139.5 127 Z " /><path fill="rgb(238,241,245)" stroke="rgb(238,241,245)" stroke-width="1" opacity="1" d="M 188.5 127 L 187.5 131 Q 184 129 188.5 127 Z " /><path fill="rgb(238,241,245)" stroke="rgb(238,241,245)" stroke-width="1" opacity="1" d="M 103.5 128 L 98.5 134 L 103.5 128 Z " /><path fill="rgb(238,241,245)" stroke="rgb(238,241,245)" stroke-width="1" opacity="1" d="M 119.5 128 L 120.5 130 L 119.5 128 Z " /><path fill="rgb(238,241,245)" stroke="rgb(238,241,245)" stroke-width="1" opacity="1" d="M 146.5 129 L 146 130.5 Q 146.9 133.5 142.5 132 L 142.5 131 L 146.5 129 Z " /><path fill="rgb(238,241,245)" stroke="rgb(238,241,245)" stroke-width="1" opacity="1" d="M 167.5 129 L 165.5 132 L 167.5 129 Z " /><path fill="rgb(238,241,245)" stroke="rgb(238,241,245)" stroke-width="1" opacity="1" d="M 83.5 130 L 84 135.5 L 83 135.5 L 83.5 130 Z " /><path fill="rgb(238,241,245)" stroke="rgb(238,241,245)" stroke-width="1" opacity="1" d="M 88.5 130 L 89 134.5 L 88 134.5 L 88.5 130 Z " /><path fill="rgb(238,241,245)" stroke="rgb(238,241,245)" stroke-width="1" opacity="1" d="M 261.5 130 L 262 131.5 L 260 132.5 L 261.5 130 Z " /><path fill="rgb(238,241,245)" stroke="rgb(238,241,245)" stroke-width="1" opacity="1" d="M 140.5 132 L 139.5 134 L 140.5 132 Z " /><path fill="rgb(238,241,245)" stroke="rgb(238,241,245)" stroke-width="1" opacity="1" d="M 182.5 132 L 183.5 134 L 182.5 132 Z " /><path fill="rgb(238,241,245)" stroke="rgb(238,241,245)" stroke-width="1" opacity="1" d="M 105.5 133 L 103 136.5 L 101.5 146 L 101 138.5 L 105.5 133 Z " /><path fill="rgb(238,241,245)" stroke="rgb(238,241,245)" stroke-width="1" opacity="1" d="M 118.5 133 L 120.5 136 L 118.5 133 Z " /><path fill="rgb(238,241,245)" stroke="rgb(238,241,245)" stroke-width="1" opacity="1" d="M 49.5 134 L 50 139.5 L 49 139.5 L 49.5 134 Z " /><path fill="rgb(238,241,245)" stroke="rgb(238,241,245)" stroke-width="1" opacity="1" d="M 54.5 134 L 55 139.5 L 54 139.5 L 54.5 134 Z " /><path fill="rgb(238,241,245)" stroke="rgb(238,241,245)" stroke-width="1" opacity="1" d="M 186.5 136 L 188 139.5 L 187 139.5 L 186.5 136 Z " /><path fill="rgb(238,241,245)" stroke="rgb(238,241,245)" stroke-width="1" opacity="1" d="M 84.5 137 L 85 142.5 L 84 142.5 L 84.5 137 Z " /><path fill="rgb(238,241,245)" stroke="rgb(238,241,245)" stroke-width="1" opacity="1" d="M 89.5 137 L 90 141.5 L 89 141.5 L 89.5 137 Z " /><path fill="rgb(238,241,245)" stroke="rgb(238,241,245)" stroke-width="1" opacity="1" d="M 96.5 137 L 97 140.5 L 96 140.5 L 96.5 137 Z " /><path fill="rgb(238,241,245)" stroke="rgb(238,241,245)" stroke-width="1" opacity="1" d="M 59.5 138 L 61 141.5 L 60 141.5 L 59.5 138 Z " /><path fill="rgb(238,241,245)" stroke="rgb(238,241,245)" stroke-width="1" opacity="1" d="M 122.5 139 L 123 144.5 L 122 144.5 L 122.5 139 Z " /><path fill="rgb(238,241,245)" stroke="rgb(238,241,245)" stroke-width="1" opacity="1" d="M 137.5 139 L 138 156.5 Q 137.3 158.8 133.5 158 L 132.5 156 L 137 157 L 137.5 139 Z " /><path fill="rgb(238,241,245)" stroke="rgb(238,241,245)" stroke-width="1" opacity="1" d="M 263.5 139 L 265 141.5 L 264 141.5 L 263.5 139 Z " /><path fill="rgb(238,241,245)" stroke="rgb(238,241,245)" stroke-width="1" opacity="1" d="M 257.5 140 L 258.5 142 L 257.5 140 Z " /><path fill="rgb(238,241,245)" stroke="rgb(238,241,245)" stroke-width="1" opacity="1" d="M 48.5 141 L 49 146.5 L 48 146.5 L 48.5 141 Z " /><path fill="rgb(238,241,245)" stroke="rgb(238,241,245)" stroke-width="1" opacity="1" d="M 53.5 142 L 54 146.5 L 53 146.5 L 53.5 142 Z " /><path fill="rgb(238,241,245)" stroke="rgb(238,241,245)" stroke-width="1" opacity="1" d="M 96.5 142 L 97 146.5 L 96 146.5 L 96.5 142 Z " /><path fill="rgb(238,241,245)" stroke="rgb(238,241,245)" stroke-width="1" opacity="1" d="M 90.5 144 L 91 148.5 L 90 148.5 L 90.5 144 Z " /><path fill="rgb(238,241,245)" stroke="rgb(238,241,245)" stroke-width="1" opacity="1" d="M 187.5 144 L 188 146.5 L 187 146.5 L 187.5 144 Z " /><path fill="rgb(238,241,245)" stroke="rgb(238,241,245)" stroke-width="1" opacity="1" d="M 265.5 144 L 266 146.5 L 265 146.5 L 265.5 144 Z " /><path fill="rgb(238,241,245)" stroke="rgb(238,241,245)" stroke-width="1" opacity="1" d="M 85.5 146 L 86 149.5 L 85 149.5 L 85.5 146 Z " /><path fill="rgb(238,241,245)" stroke="rgb(238,241,245)" stroke-width="1" opacity="1" d="M 225.5 147 L 223.5 150 L 225.5 147 Z " /><path fill="rgb(238,241,245)" stroke="rgb(238,241,245)" stroke-width="1" opacity="1" d="M 97.5 148 L 99 150.5 L 97 149.5 L 97.5 148 Z " /><path fill="rgb(238,241,245)" stroke="rgb(238,241,245)" stroke-width="1" opacity="1" d="M 168.5 148 L 174 152.5 L 172.5 153 L 168.5 148 Z " /><path fill="rgb(238,241,245)" stroke="rgb(238,241,245)" stroke-width="1" opacity="1" d="M 47.5 149 L 48 153.5 L 47 153.5 L 47.5 149 Z " /><path fill="rgb(238,241,245)" stroke="rgb(238,241,245)" stroke-width="1" opacity="1" d="M 103.5 149 L 104.5 151 L 103.5 149 Z " /><path fill="rgb(238,241,245)" stroke="rgb(238,241,245)" stroke-width="1" opacity="1" d="M 120.5 149 L 119.5 151 L 120.5 149 Z " /><path fill="rgb(238,241,245)" stroke="rgb(238,241,245)" stroke-width="1" opacity="1" d="M 230.5 149 L 229.5 151 L 230.5 149 Z " /><path fill="rgb(238,241,245)" stroke="rgb(238,241,245)" stroke-width="1" opacity="1" d="M 258.5 149 L 257.5 151 L 258.5 149 Z " /><path fill="rgb(238,241,245)" stroke="rgb(238,241,245)" stroke-width="1" opacity="1" d="M 264.5 149 L 265 150.5 L 262 152.5 L 264.5 149 Z " /><path fill="rgb(238,241,245)" stroke="rgb(238,241,245)" stroke-width="1" opacity="1" d="M 52.5 150 L 53 153.5 L 52 153.5 L 52.5 150 Z " /><path fill="rgb(238,241,245)" stroke="rgb(238,241,245)" stroke-width="1" opacity="1" d="M 106.5 151 L 109 152.5 L 107.5 153 L 106.5 151 Z " /><path fill="rgb(238,241,245)" stroke="rgb(238,241,245)" stroke-width="1" opacity="1" d="M 117.5 151 L 116.5 153 L 115 152.5 L 117.5 151 Z " /><path fill="rgb(238,241,245)" stroke="rgb(238,241,245)" stroke-width="1" opacity="1" d="M 164.5 151 L 165.5 153 L 164.5 151 Z " /><path fill="rgb(238,241,245)" stroke="rgb(238,241,245)" stroke-width="1" opacity="1" d="M 213.5 151 L 220 151.5 L 213.5 152 L 213.5 151 Z " /><path fill="rgb(238,241,245)" stroke="rgb(238,241,245)" stroke-width="1" opacity="1" d="M 247.5 151 L 252 151.5 L 247.5 152 L 247.5 151 Z " /><path fill="rgb(238,241,245)" stroke="rgb(238,241,245)" stroke-width="1" opacity="1" d="M 253.5 151 L 256 151.5 L 253.5 152 L 253.5 151 Z " /><path fill="rgb(238,241,245)" stroke="rgb(238,241,245)" stroke-width="1" opacity="1" d="M 91.5 152 L 92 156.5 Q 91.3 158.8 87.5 158 L 86 154.5 L 87 154.5 Q 85.8 159.1 91 157 L 91.5 152 Z " /><path fill="rgb(238,241,245)" stroke="rgb(238,241,245)" stroke-width="1" opacity="1" d="M 205.5 152 L 212 152.5 L 205.5 153 L 205.5 152 Z " /><path fill="rgb(238,241,245)" stroke="rgb(238,241,245)" stroke-width="1" opacity="1" d="M 100.5 153 L 101.5 155 L 100.5 153 Z " /><path fill="rgb(238,241,245)" stroke="rgb(238,241,245)" stroke-width="1" opacity="1" d="M 110.5 153 L 114 153.5 L 110.5 154 L 110.5 153 Z " /><path fill="rgb(238,241,245)" stroke="rgb(238,241,245)" stroke-width="1" opacity="1" d="M 175.5 153 L 180 153.5 L 175.5 154 L 175.5 153 Z " /><path fill="rgb(238,241,245)" stroke="rgb(238,241,245)" stroke-width="1" opacity="1" d="M 187.5 153 Q 185.8 155 189.5 157 L 192.5 156 L 191.5 158 Q 187 158.5 186.5 155 L 185 155.5 L 187.5 153 Z " /><path fill="rgb(238,241,245)" stroke="rgb(238,241,245)" stroke-width="1" opacity="1" d="M 226.5 153 L 225.5 155 L 226.5 153 Z " /><path fill="rgb(238,241,245)" stroke="rgb(238,241,245)" stroke-width="1" opacity="1" d="M 167.5 154 L 171 156.5 L 169.5 157 L 167.5 154 Z " /><path fill="rgb(238,241,245)" stroke="rgb(238,241,245)" stroke-width="1" opacity="1" d="M 260.5 154 L 259.5 156 L 260.5 154 Z " /><path fill="rgb(238,241,245)" stroke="rgb(238,241,245)" stroke-width="1" opacity="1" d="M 119.5 155 L 118.5 157 L 119.5 155 Z " /><path fill="rgb(238,241,245)" stroke="rgb(238,241,245)" stroke-width="1" opacity="1" d="M 51.5 156 L 50.5 158 L 47 157.5 L 51.5 156 Z " /><path fill="rgb(238,241,245)" stroke="rgb(238,241,245)" stroke-width="1" opacity="1" d="M 68.5 156 L 71 156.5 Q 68.9 159.8 68.5 156 Z " /><path fill="rgb(238,241,245)" stroke="rgb(238,241,245)" stroke-width="1" opacity="1" d="M 122.5 156 L 127 157.5 L 123.5 158 L 122.5 156 Z " /><path fill="rgb(238,241,245)" stroke="rgb(238,241,245)" stroke-width="1" opacity="1" d="M 155.5 156 L 154.5 158 L 151 157.5 L 155.5 156 Z " /><path fill="rgb(238,241,245)" stroke="rgb(238,241,245)" stroke-width="1" opacity="1" d="M 106.5 157 L 109 157.5 L 106.5 158 L 106.5 157 Z " /><path fill="rgb(238,241,245)" stroke="rgb(238,241,245)" stroke-width="1" opacity="1" d="M 114.5 157 L 117 157.5 L 114.5 158 L 114.5 157 Z " /><path fill="rgb(238,241,245)" stroke="rgb(238,241,245)" stroke-width="1" opacity="1" d="M 172.5 157 L 179 158.5 L 175.5 159 L 172.5 158 L 172.5 157 Z " /><path fill="rgb(238,241,245)" stroke="rgb(238,241,245)" stroke-width="1" opacity="1" d="M 241.5 157 L 254 157.5 L 241.5 158 L 241.5 157 Z " /><path fill="rgb(238,241,245)" stroke="rgb(238,241,245)" stroke-width="1" opacity="1" d="M 110.5 158 L 113 158.5 L 110.5 159 L 110.5 158 Z " /></svg>